<svg width="40" height="44" viewBox="0 0 40 44" fill="none" xmlns="http://www.w3.org/2000/svg" xmlns:xlink="http://www.w3.org/1999/xlink">
<path d="M36.061,36.939C35.475,36.354 34.525,36.354 33.939,36.939C33.354,37.525 33.354,38.475 33.939,39.061L36.061,36.939ZM36.939,42.061C37.525,42.646 38.475,42.646 39.061,42.061C39.646,41.475 39.646,40.525 39.061,39.939L36.939,42.061ZM30,39L30,40.5L30,39ZM36,33L37.5,33L36,33ZM33.939,39.061L36.939,42.061L39.061,39.939L36.061,36.939L33.939,39.061ZM22.5,33C22.5,34.989 23.29,36.897 24.697,38.303L26.818,36.182C25.974,35.338 25.5,34.193 25.5,33L22.5,33ZM24.697,38.303C26.103,39.71 28.011,40.5 30,40.5L30,37.5C28.807,37.5 27.662,37.026 26.818,36.182L24.697,38.303ZM30,40.5C31.989,40.5 33.897,39.71 35.303,38.303L33.182,36.182C32.338,37.026 31.193,37.5 30,37.5L30,40.5ZM35.303,38.303C36.71,36.897 37.5,34.989 37.5,33L34.5,33C34.5,34.193 34.026,35.338 33.182,36.182L35.303,38.303ZM37.5,33C37.5,31.011 36.71,29.103 35.303,27.697L33.182,29.818C34.026,30.662 34.5,31.807 34.5,33L37.5,33ZM35.303,27.697C33.897,26.29 31.989,25.5 30,25.5L30,28.5C31.193,28.5 32.338,28.974 33.182,29.818L35.303,27.697ZM30,25.5C28.011,25.5 26.103,26.29 24.697,27.697L26.818,29.818C27.662,28.974 28.807,28.5 30,28.5L30,25.5ZM24.697,27.697C23.29,29.103 22.5,31.011 22.5,33L25.5,33C25.5,31.807 25.974,30.662 26.818,29.818L24.697,27.697Z" fill="#FFFFFF"/>
<path d="M32.5,21C32.5,21.828 33.172,22.5 34,22.5C34.828,22.5 35.5,21.828 35.5,21L32.5,21ZM34,8.498L32.5,8.497L32.5,8.498L34,8.498ZM33.648,7.648L32.587,8.709L32.588,8.709L33.648,7.648ZM27.352,1.352L26.291,2.412L26.291,2.413L27.352,1.352ZM26.504,1L26.505,-0.5L26.504,-0.5L26.504,1ZM2,39.8L3.5,39.8L2,39.8ZM3.2,41L3.2,42.5L3.2,41ZM16,42.5C16.828,42.5 17.5,41.828 17.5,41C17.5,40.172 16.828,39.5 16,39.5L16,42.5ZM35.5,21L35.5,8.498L32.5,8.498L32.5,21L35.5,21ZM35.5,8.499C35.5,8.144 35.43,7.792 35.295,7.464L32.523,8.612C32.508,8.575 32.5,8.536 32.5,8.497L35.5,8.499ZM35.295,7.464C35.159,7.136 34.959,6.838 34.708,6.587L32.588,8.709C32.56,8.681 32.538,8.648 32.523,8.612L35.295,7.464ZM34.709,6.587L28.413,0.291L26.291,2.413L32.587,8.709L34.709,6.587ZM28.413,0.292C27.907,-0.214 27.221,-0.499 26.505,-0.5L26.503,2.5C26.423,2.5 26.347,2.468 26.291,2.412L28.413,0.292ZM26.504,-0.5L3.2,-0.5L3.2,2.5L26.504,2.5L26.504,-0.5ZM3.2,-0.5C2.484,-0.5 1.797,-0.216 1.291,0.291L3.412,2.412C3.356,2.468 3.28,2.5 3.2,2.5L3.2,-0.5ZM1.291,0.291C0.784,0.797 0.5,1.484 0.5,2.2L3.5,2.2C3.5,2.28 3.468,2.356 3.412,2.412L1.291,0.291ZM0.5,2.2L0.5,39.8L3.5,39.8L3.5,2.2L0.5,2.2ZM0.5,39.8C0.5,40.516 0.784,41.203 1.291,41.709L3.412,39.588C3.468,39.644 3.5,39.72 3.5,39.8L0.5,39.8ZM1.291,41.709C1.797,42.216 2.484,42.5 3.2,42.5L3.2,39.5C3.28,39.5 3.356,39.532 3.412,39.588L1.291,41.709ZM3.2,42.5L16,42.5L16,39.5L3.2,39.5L3.2,42.5Z" fill="#FFFFFF"/>
<path d="M27.5,1C27.5,0.172 26.828,-0.5 26,-0.5C25.172,-0.5 24.5,0.172 24.5,1L27.5,1ZM26,7.8L27.5,7.8L26,7.8ZM34,10.5C34.828,10.5 35.5,9.828 35.5,9C35.5,8.172 34.828,7.5 34,7.5L34,10.5ZM24.5,1L24.5,7.8L27.5,7.8L27.5,1L24.5,1ZM24.5,7.8C24.5,8.516 24.784,9.203 25.291,9.709L27.412,7.588C27.468,7.644 27.5,7.72 27.5,7.8L24.5,7.8ZM25.291,9.709C25.797,10.216 26.484,10.5 27.2,10.5L27.2,7.5C27.28,7.5 27.356,7.532 27.412,7.588L25.291,9.709ZM27.2,10.5L34,10.5L34,7.5L27.2,7.5L27.2,10.5Z" fill="#FFFFFF"/>
</svg>
