<svg width="48" height="48" viewBox="0 0 48 48" fill="none" xmlns="http://www.w3.org/2000/svg" xmlns:xlink="http://www.w3.org/1999/xlink">
<path d="M14.432,5.365C14.432,4.937 14.273,4.526 13.989,4.223C13.706,3.92 13.321,3.75 12.92,3.75C12.519,3.75 12.135,3.92 11.851,4.223C11.568,4.526 11.408,4.937 11.408,5.365L11.408,8.768C8.506,9.016 6.602,9.624 5.203,11.12C3.802,12.615 3.234,14.651 3,17.75L43,17.75C42.766,14.648 42.198,12.615 40.797,11.12C39.398,9.624 37.492,9.016 34.592,8.766L34.592,5.365C34.592,4.937 34.432,4.526 34.149,4.223C33.865,3.92 33.481,3.75 33.08,3.75C32.679,3.75 32.294,3.92 32.011,4.223C31.727,4.526 31.568,4.937 31.568,5.365L31.568,8.624C30.227,8.596 28.723,8.596 27.032,8.596L18.968,8.596C17.277,8.596 15.773,8.596 14.432,8.624L14.432,5.365Z" fill="#000000"/>
<path d="M3,22.25C3,20.572 3,19.08 3.026,17.75L42.974,17.75C43,19.08 43,20.572 43,22.25L43,26.25C43,33.792 43,37.564 40.656,39.906C38.314,42.25 34.542,42.25 27,42.25L19,42.25C11.458,42.25 7.686,42.25 5.344,39.906C3,37.564 3,33.792 3,26.25L3,22.25ZM33,26.25C33.53,26.25 34.039,26.039 34.414,25.664C34.789,25.289 35,24.78 35,24.25C35,23.72 34.789,23.211 34.414,22.836C34.039,22.461 33.53,22.25 33,22.25C32.47,22.25 31.961,22.461 31.586,22.836C31.211,23.211 31,23.72 31,24.25C31,24.78 31.211,25.289 31.586,25.664C31.961,26.039 32.47,26.25 33,26.25ZM33,34.25C33.53,34.25 34.039,34.039 34.414,33.664C34.789,33.289 35,32.78 35,32.25C35,31.72 34.789,31.211 34.414,30.836C34.039,30.461 33.53,30.25 33,30.25C32.47,30.25 31.961,30.461 31.586,30.836C31.211,31.211 31,31.72 31,32.25C31,32.78 31.211,33.289 31.586,33.664C31.961,34.039 32.47,34.25 33,34.25ZM25,24.25C25,24.78 24.789,25.289 24.414,25.664C24.039,26.039 23.53,26.25 23,26.25C22.47,26.25 21.961,26.039 21.586,25.664C21.211,25.289 21,24.78 21,24.25C21,23.72 21.211,23.211 21.586,22.836C21.961,22.461 22.47,22.25 23,22.25C23.53,22.25 24.039,22.461 24.414,22.836C24.789,23.211 25,23.72 25,24.25ZM25,32.25C25,32.78 24.789,33.289 24.414,33.664C24.039,34.039 23.53,34.25 23,34.25C22.47,34.25 21.961,34.039 21.586,33.664C21.211,33.289 21,32.78 21,32.25C21,31.72 21.211,31.211 21.586,30.836C21.961,30.461 22.47,30.25 23,30.25C23.53,30.25 24.039,30.461 24.414,30.836C24.789,31.211 25,31.72 25,32.25ZM13,26.25C13.53,26.25 14.039,26.039 14.414,25.664C14.789,25.289 15,24.78 15,24.25C15,23.72 14.789,23.211 14.414,22.836C14.039,22.461 13.53,22.25 13,22.25C12.47,22.25 11.961,22.461 11.586,22.836C11.211,23.211 11,23.72 11,24.25C11,24.78 11.211,25.289 11.586,25.664C11.961,26.039 12.47,26.25 13,26.25ZM13,34.25C13.53,34.25 14.039,34.039 14.414,33.664C14.789,33.289 15,32.78 15,32.25C15,31.72 14.789,31.211 14.414,30.836C14.039,30.461 13.53,30.25 13,30.25C12.47,30.25 11.961,30.461 11.586,30.836C11.211,31.211 11,31.72 11,32.25C11,32.78 11.211,33.289 11.586,33.664C11.961,34.039 12.47,34.25 13,34.25Z" clip-rule="evenodd" fill-rule="evenodd" fill="#000000"/>
</svg>
