<svg width="660" height="466" viewBox="0 0 660 466" fill="none" xmlns="http://www.w3.org/2000/svg" xmlns:xlink="http://www.w3.org/1999/xlink">
<path d="M608.948,224.054L73.76,224.054C66.586,224.054 60.75,217.79 60.75,210.088L60.75,13.966C60.75,6.265 66.586,0 73.76,0L608.948,0C616.12,0 621.956,6.265 621.956,13.966L621.956,210.088C621.956,217.79 616.12,224.054 608.948,224.054ZM73.76,1.665C67.442,1.665 62.301,7.183 62.301,13.966L62.301,210.088C62.301,216.87 67.442,222.388 73.76,222.388L608.948,222.388C615.266,222.388 620.406,216.87 620.406,210.088L620.406,13.966C620.406,7.183 615.266,1.665 608.948,1.665L73.76,1.665Z" fill="#3F3D56"/>
<rect  x="0" y="458.348" width="660" height="1.401" fill="#E6E6E6"/>
<rect  x="0" y="386.751" width="660" height="1.401" fill="#E6E6E6"/>
<path d="M300.781,231.266C301.255,237.66 304.712,242.58 308.502,242.256C312.293,241.931 314.98,236.486 314.505,230.09C314.348,227.532 313.623,225.052 312.39,222.857L310.063,195.794L298.256,197.237L301.803,223.763C300.909,226.14 300.558,228.713 300.781,231.266Z" fill="#FFB6B6"/>
<path d="M286.676,105.008C286.676,105.008 297.713,98.736 303.31,108.109C308.906,117.481 312.769,218.851 312.769,218.851L297.257,220.629L294.316,149.196L286.676,105.008Z" fill="#E6E6E6"/>
<path d="M263.768,381.462L272.754,381.461L277.029,344.252L263.766,344.253L263.768,381.462Z" fill="#FFB6B6"/>
<path d="M294.556,381.243C294.836,381.749 294.984,383.382 294.984,383.97C294.984,385.778 293.618,387.244 291.934,387.244L264.104,387.244C262.955,387.244 262.023,386.244 262.023,385.011L262.023,383.767C262.023,383.767 260.647,380.029 263.481,375.421C263.481,375.421 267.004,379.029 272.268,373.378L273.82,370.359L285.056,379.181L291.284,380.004C292.647,380.184 293.855,379.976 294.556,381.243Z" fill="#2F2E41"/>
<path d="M315.77,379.865L324.477,377.476L320.04,340.289L307.189,343.814L315.77,379.865Z" fill="#FFB6B6"/>
<path d="M345.55,371.472C345.938,371.888 346.457,373.431 346.593,374.001C347.01,375.753 346.025,377.536 344.392,377.983L317.429,385.377C316.315,385.683 315.182,384.961 314.898,383.766L314.611,382.561C314.611,382.561 312.415,379.305 314.099,374.088C314.099,374.088 318.344,376.647 322.142,369.774L322.95,366.437L335.87,371.998L342.094,371.141C343.456,370.953 344.579,370.431 345.55,371.472Z" fill="#2F2E41"/>
<path d="M256.333,97.009L255.907,93.689L260.971,80.413L274.885,78.753L277.889,97.761L256.333,97.009Z" fill="#FFB6B6"/>
<g opacity="0.1">
<path d="M256.333,97.009L255.907,93.689L260.971,80.413L274.885,78.753L277.889,97.761L256.333,97.009Z" fill="#000000"/>
</g>
<path d="M240.1,190.777L233.916,209.033L238.554,218.99L261.744,363.377L277.162,363.377L274.112,235.587L309.671,363.377L324.93,363.377L312.659,277.077L303.486,197.415L297.923,193.726L271.02,177.5L240.1,190.777Z" fill="#2F2E41"/>
<path d="M279.523,203.225L270.247,204.884L257.879,173.352L285.707,173.352L279.523,203.225Z" fill="#E6E6E6"/>
<path d="M298.075,194.926L279.523,203.224L273.339,188.288L270.247,204.884L237.781,193.665L242.419,173.351L237.781,106.966L254.153,95.249L256.333,93.689L276.431,95.349L278.194,96.378L290.345,103.647L293.437,158.414L298.075,194.926Z" fill="#2F2E41"/>
<path d="M278.194,96.378L269.474,136.01L254.153,95.249L256.333,93.689L276.431,95.349L278.194,96.378Z" fill="#E6E6E6"/>
<path d="M263.29,93.689L260.198,99.406L263.29,101.311L261.744,136.113L267.928,145.138L274.112,131.799L269.474,101.311L271.02,93.689L263.29,93.689Z" fill="#2F2E41"/>
<path d="M267.928,90.371C276.04,90.371 282.615,83.312 282.615,74.604C282.615,65.897 276.04,58.838 267.928,58.838C259.817,58.838 253.241,65.897 253.241,74.604C253.241,83.312 259.817,90.371 267.928,90.371Z" fill="#FFB6B6"/>
<path d="M258.542,75.987L261.715,77.474L263.1,68.553C263.1,68.553 268.64,65.58 272.795,67.067C276.95,68.553 283.875,67.067 283.875,67.067C283.875,67.067 283.875,52.199 274.18,52.199C264.485,52.199 254.79,53.686 254.79,58.146C254.79,62.606 250.635,67.067 250.635,67.067C250.635,67.067 245.096,75.987 250.635,81.934C256.175,87.881 258.945,87.881 258.945,87.881L258.542,75.987Z" fill="#2F2E41"/>
<path d="M230.044,230.8C229.883,237.212 232.834,242.498 236.635,242.607C240.436,242.717 243.647,237.608 243.807,231.194C243.904,228.633 243.428,226.084 242.419,223.761L242.782,196.586L230.899,196.675L231.803,223.456C230.678,225.718 230.075,228.236 230.044,230.8Z" fill="#FFB6B6"/>
<path d="M244.745,103.616C244.745,103.616 234.696,100.297 230.058,110.255C225.42,120.212 231.604,221.449 231.604,221.449L247.204,221.449L243.064,150.085L244.745,103.616Z" fill="#E6E6E6"/>
<path d="M630.238,292.22L592.763,279.905C591.934,279.633 591.064,279.533 590.2,279.612L400.272,296.964C397.564,297.211 396.884,301.132 399.327,302.41L405.411,305.592L405.249,305.592L405.249,457.902L410.981,457.902L410.981,308.505L430.048,318.477C431.507,319.24 433.135,319.551 434.75,319.376L436.778,319.156L436.778,457.902L442.511,457.902L442.511,318.534L589.411,302.606L589.411,457.902L595.144,457.902L595.144,301.984L619.508,299.342L619.508,457.902L625.24,457.902L625.24,298.721L629.684,298.239C632.806,297.9 633.236,293.205 630.238,292.22Z" fill="#3F3D56"/>
<path d="M455.41,296.361C458.993,296.361 512.02,289.438 512.02,289.438L519.902,300.976L464.725,312.515L455.41,296.361Z" fill="#FFFFFF"/>
<path d="M513.608,451.986L504.395,451.968L500.073,413.813L513.67,413.84L513.608,451.986Z" fill="#A0616A"/>
<path d="M482.044,451.704C481.756,452.222 481.602,453.896 481.601,454.499C481.598,456.352 482.996,457.858 484.723,457.861L513.253,457.914C514.432,457.916 515.388,456.892 515.39,455.628L515.392,454.353C515.392,454.353 516.81,450.523 513.912,445.794C513.912,445.794 510.294,449.486 504.907,443.683L503.32,440.585L491.786,449.608L485.4,450.44C484.003,450.622 482.764,450.406 482.044,451.704Z" fill="#2F2E41"/>
<path d="M563.054,434.244L555.785,440.129L531.178,412.834L541.906,404.147L563.054,434.244Z" fill="#A0616A"/>
<path d="M538.028,454.233C538.089,454.826 538.897,456.243 539.232,456.719C540.26,458.181 542.197,458.472 543.56,457.369L566.069,439.141C566.998,438.388 567.183,436.969 566.482,435.971L565.775,434.965C565.775,434.965 564.764,431.04 559.853,429.17C559.853,429.17 559.054,434.395 551.585,433.273L548.613,431.848L544.539,446.343L539.969,451.088C538.97,452.126 537.874,452.749 538.028,454.233Z" fill="#2F2E41"/>
<path d="M543.8,237.05C543.8,246.171 536.912,253.564 528.417,253.564C519.921,253.564 513.034,246.171 513.034,237.05C513.034,227.93 519.921,220.537 528.417,220.537C536.912,220.537 543.8,227.93 543.8,237.05Z" fill="#A0616A"/>
<path d="M542.351,332.263C542.351,332.263 485.712,328.821 482.506,335.704C479.3,342.587 499.838,437.133 499.838,437.133L518.161,433.01L509.222,366.678C509.222,366.678 556.486,380.115 562.898,364.054C569.309,347.994 567.464,342.014 567.464,342.014L542.351,332.263Z" fill="#2F2E41"/>
<path d="M556.862,320.709C556.862,320.709 501.393,333.474 499.998,341.022C498.602,348.57 541.706,433.915 541.706,433.915L558.361,424.736L533.395,363.306C533.395,363.306 582.285,362.842 584.511,345.533C586.737,328.224 583.483,322.981 583.483,322.981L556.862,320.709Z" fill="#2F2E41"/>
<path d="M563.189,255.976L536.54,255.976L518.306,288.096C518.306,288.096 514.031,308.854 518.306,311.094C522.58,313.334 522.58,337.425 522.58,337.425L567.463,342.014C567.463,342.014 573.875,269.742 571.738,262.859C569.601,255.976 563.189,255.976 563.189,255.976Z" fill="#6C63FF"/>
<path d="M520.977,277.198L518.306,311.094L488.256,297.403L481.084,293.532C479.68,291.565 477.857,289.989 475.768,288.934C470.574,286.216 465.06,286.889 463.449,290.437C461.839,293.984 464.742,299.061 469.935,301.777C471.997,302.893 474.277,303.463 476.586,303.439L497.57,316.233L497.595,316.183L497.688,316.361L530.595,331.115L538.167,286.618L520.977,277.198Z" fill="#A0616A"/>
<path d="M517.771,239.341C517.771,239.341 501.742,241.636 508.154,226.723C508.154,226.723 507.176,218.638 511.939,218.092C516.703,217.545 523.115,208.368 523.115,208.368C523.115,208.368 537.815,200.338 545.426,208.368C553.037,216.398 575.478,263.432 575.478,263.432L560.517,280.64C560.517,280.64 551.523,255.257 541.059,258.198C530.595,261.138 520.977,269.904 520.977,269.904C520.977,269.904 510.358,264.199 515.133,259.227C519.909,254.255 517.771,239.341 517.771,239.341Z" fill="#2F2E41"/>
<path d="M539.144,264.579C539.144,264.579 531.664,254.254 526.32,262.284C520.977,270.315 516.703,280.639 516.703,280.639L538.076,288.669L539.144,264.579Z" fill="#6C63FF"/>
<path d="M620.294,455.618L595.463,370.893L595.466,370.893L595.524,370.893L595.423,370.754L595.421,370.751L593.652,364.716L593.653,364.716C596.348,362.223 598.182,358.662 598.547,354.562L587.197,287.545C587.978,278.745 581.693,271.053 573.46,270.737L547.849,270.668C540.569,270.391 534.263,276.037 533.202,283.776L532.636,287.884L524.789,345.185C524.503,347.246 524.617,349.277 525.069,351.177L519.422,351.969L517.709,352.215L510.938,353.162L510.916,353.169L510.071,353.285L509.153,353.285L509.153,377.9L509.211,377.9L509.211,456.579C509.211,457.086 509.598,457.502 510.071,457.502C510.551,457.502 510.938,457.086 510.938,456.579L510.938,377.9L520.984,377.9L531.009,456.486C531.074,456.948 531.439,457.286 531.869,457.286C531.905,457.286 531.948,457.286 531.984,457.279C532.457,457.209 532.786,456.74 532.722,456.232L522.733,377.9L570.937,377.9C575.724,377.9 580.159,376.27 583.77,373.478L602.883,456.342C602.982,456.762 603.333,457.04 603.719,457.04C603.789,457.04 603.861,457.031 603.932,457.012C604.394,456.885 604.673,456.381 604.556,455.885L585.259,372.22C585.515,371.99 585.772,371.745 586.014,371.493L593.687,371.008L618.648,456.175C618.763,456.57 619.104,456.823 619.471,456.823C619.556,456.823 619.644,456.809 619.73,456.78C620.185,456.627 620.437,456.106 620.294,455.618ZM592.012,366.031C592.077,365.993 592.134,365.946 592.191,365.908L592.376,366.537L592.012,366.031Z" fill="#E6E6E6"/>
<path d="M133.053,312.006L149.765,300.598L156.559,304.997L133.053,333.992L133.053,312.006Z" fill="#FFB6B6"/>
<path d="M110.2,267.848C110.2,267.848 99.1,270.652 104.323,286.773C109.547,302.894 126.524,336.539 131.747,334.436C136.971,332.333 137.624,311.305 137.624,311.305C137.624,311.305 136.971,312.006 134.359,309.203C131.747,306.399 131.747,307.679 131.747,304.586C131.747,301.492 129.611,299.199 129.611,299.199L127.177,293.782C127.177,293.782 127.177,268.549 117.382,267.147C107.588,265.745 110.2,267.848 110.2,267.848Z" fill="#E6E6E6"/>
<path d="M157.212,306.151C163.572,306.151 168.727,302.967 168.727,299.039C168.727,295.111 163.572,291.927 157.212,291.927C150.852,291.927 145.697,295.111 145.697,299.039C145.697,302.967 150.852,306.151 157.212,306.151Z" transform="rotate(-94.059 157.212 299.039)" fill="#FFB6B6"/>
<path d="M66.965,360.721L78.369,380.982L144.823,376.761L127.128,352.278L66.965,360.721Z" fill="#E6E6E6"/>
<path d="M86.822,455.486C86.435,455.486 86.098,455.179 86.044,454.756L66.186,299.07C66.127,298.608 66.428,298.182 66.858,298.119C67.289,298.052 67.685,298.379 67.744,298.841L87.602,454.527C87.661,454.989 87.36,455.415 86.93,455.478C86.893,455.484 86.858,455.486 86.822,455.486Z" fill="#E6E6E6"/>
<path d="M66.965,455.684C66.531,455.684 66.179,455.306 66.179,454.84L66.179,298.986C66.179,298.52 66.531,298.142 66.965,298.142C67.399,298.142 67.752,298.52 67.752,298.986L67.752,454.84C67.752,455.306 67.399,455.684 66.965,455.684Z" fill="#E6E6E6"/>
<path d="M166.647,455.064C166.312,455.064 166.002,454.834 165.897,454.473L118.907,294.144C118.776,293.699 119.006,293.225 119.421,293.085C119.835,292.945 120.277,293.192 120.407,293.637L167.397,453.966C167.527,454.411 167.297,454.885 166.883,455.025C166.804,455.052 166.725,455.064 166.647,455.064Z" fill="#E6E6E6"/>
<path d="M152.294,455.262C151.942,455.262 151.623,455.008 151.532,454.626L118.895,313.124C118.788,312.672 119.042,312.212 119.463,312.097C119.885,311.983 120.312,312.256 120.419,312.707L153.056,454.209C153.163,454.661 152.909,455.121 152.488,455.236C152.423,455.254 152.358,455.262 152.294,455.262Z" fill="#E6E6E6"/>
<path d="M66.965,301.468L121.427,300.569L131.454,361.987L67.752,361.987L66.965,301.468Z" fill="#E6E6E6"/>
<path d="M150.658,391.779L136.933,417.719L152.869,421.485L159.513,403.036L150.658,391.779Z" fill="#FFB6B6"/>
<path d="M141.863,412.822C141.863,412.822 141.33,408.592 138.194,409.934C135.059,411.276 126.01,416.265 126.01,416.265C126.01,416.265 149.612,457.434 154.091,455.516C158.57,453.598 153.208,441.961 153.208,441.961L154.392,421.391L141.863,412.822Z" fill="#2F2E41"/>
<path d="M89.959,341.445C89.959,341.445 85.062,365.627 100.08,374.038C115.097,382.449 166.354,361.772 166.354,361.772L142.848,399.581L159.171,406.632C159.171,406.632 196.389,354.062 193.778,345.651C191.166,337.239 173.536,336.539 173.536,336.539L133.706,338.641L123.259,335.137L89.959,341.445Z" fill="#2F2E41"/>
<path d="M130.353,403.292L108.776,422.092L122.343,431.825L134.785,417.236L130.353,403.292Z" fill="#FFB6B6"/>
<path d="M115.028,419.457C115.028,419.457 115.965,415.308 112.59,415.334C109.214,415.36 99.094,416.472 99.094,416.472C99.094,416.472 107.123,464.038 111.945,464.001C116.768,463.964 115.718,451.03 115.718,451.03L123.793,432.333L115.028,419.457Z" fill="#2F2E41"/>
<path d="M90.877,332.698C90.877,332.698 78.119,353.31 89.256,367.01C100.393,380.711 155.144,381.473 155.144,381.473L120.433,407.508L133.248,420.452C133.248,420.452 185.734,386.024 186.153,377.169C186.571,368.315 170.388,360.775 170.388,360.775L132.576,347.175L124.033,339.83L90.877,332.698Z" fill="#2F2E41"/>
<path d="M123.652,284.957C123.652,284.957 111.246,280.051 105.37,280.051C104.808,280.051 104.253,280.121 103.698,280.247C99.937,281.102 96.477,284.572 94.818,286.464C94.172,287.207 93.799,287.705 93.799,287.705C93.799,287.705 93.839,287.221 93.917,286.373C94.302,281.915 95.726,267.287 98.279,257.923C99.193,254.579 100.244,251.909 101.452,250.612C104.266,247.584 105.566,243.953 106.166,241.248C106.676,238.927 106.676,237.294 106.676,237.294L101.916,235.093L101.034,228.911C100.877,229.64 100.153,231.063 97.717,233.79C97.508,234.021 97.28,234.217 97.038,234.385C93.525,236.755 86.362,232.633 82.503,230.04C84.11,224.047 87.022,218.565 92.311,217.668C104.717,215.566 104.717,207.855 112.552,216.266C113.198,216.96 113.851,217.626 114.504,218.271C117.012,223.416 117.926,230.313 118.252,235.107C118.487,238.465 118.429,240.799 118.429,240.799C118.429,240.799 121.693,261.827 126.917,266.032C132.14,270.238 123.652,284.957 123.652,284.957Z" fill="#2F2E41"/>
<path d="M99.493,251.313L90.671,265.204L110.594,270.938L110.594,251.313L99.493,251.313Z" fill="#FFB6B6"/>
<g opacity="0.1">
<path d="M99.493,251.313L90.671,265.204L110.594,270.938L110.594,251.313L99.493,251.313Z" fill="#000000"/>
</g>
<path d="M111.833,264.693L92.897,256.282C92.897,256.282 67.432,268.198 69.391,291.329C71.35,314.459 89.632,354.412 89.632,354.412L126.198,337.59L122.28,292.73L111.833,264.693Z" fill="#E6E6E6"/>
<path d="M103.714,257.515C112.94,257.515 120.42,249.486 120.42,239.582C120.42,229.677 112.94,221.648 103.714,221.648C94.488,221.648 87.008,229.677 87.008,239.582C87.008,249.486 94.488,257.515 103.714,257.515Z" fill="#FFB6B6"/>
<path d="M126.264,233.089C123,236.593 120.388,240.098 120.388,240.098L119.082,234.491C119.082,234.491 118.781,234.729 118.253,235.107C116.183,236.621 110.626,240.427 106.167,241.248C104.182,241.612 102.419,241.381 101.269,240.098C98.834,237.371 98.109,235.948 97.952,235.22L97.071,241.402L92.311,243.603C92.311,243.603 92.311,251.299 97.535,256.92C97.789,257.194 98.037,257.53 98.279,257.923C100.773,261.96 102.562,271.843 103.698,280.247C104.704,287.719 105.187,294.013 105.187,294.013C105.187,294.013 100.244,287.369 94.818,286.464C94.518,286.415 94.218,286.38 93.917,286.373C93.819,286.359 93.715,286.359 93.617,286.359C87.74,286.359 75.334,291.266 75.334,291.266C75.334,291.266 66.846,276.546 72.07,272.341C77.293,268.135 80.558,247.107 80.558,247.107C80.558,247.107 80.342,238.107 82.504,230.04C84.11,224.047 87.022,218.565 92.311,217.668C104.717,215.566 104.717,207.855 112.552,216.266C113.199,216.96 113.852,217.626 114.505,218.271C121.805,225.477 129.261,229.871 126.264,233.089Z" fill="#2F2E41"/>
<rect  x="46.791" y="327.179" width="6.204" height="131.537" fill="#3F3D56"/>
<rect  x="197.243" y="327.179" width="6.204" height="131.537" fill="#3F3D56"/>
<rect  x="122.792" y="271.4" width="41.103" height="44.123" fill="#6C63FF"/>
<path d="M99.1,318.315L115.812,306.906L122.606,311.306L99.1,340.3L99.1,318.315Z" fill="#FFB6B6"/>
<path d="M76.247,274.156C76.247,274.156 65.147,276.96 70.37,293.081C75.594,309.203 92.571,342.847 97.794,340.745C103.018,338.642 103.671,317.614 103.671,317.614C103.671,317.614 103.018,318.315 100.406,315.511C97.794,312.707 97.794,313.988 97.794,310.894C97.794,307.801 95.658,305.508 95.658,305.508L93.223,300.091C93.223,300.091 93.223,274.857 83.429,273.456C73.635,272.054 76.247,274.156 76.247,274.156Z" fill="#E6E6E6"/>
<path d="M123.259,312.46C129.619,312.46 134.774,309.276 134.774,305.348C134.774,301.42 129.619,298.235 123.259,298.235C116.899,298.235 111.744,301.42 111.744,305.348C111.744,309.276 116.899,312.46 123.259,312.46Z" transform="rotate(-94.059 123.259 305.348)" fill="#FFB6B6"/>
<rect  x="28.178" y="322.184" width="187.678" height="14.985" fill="#3F3D56"/>
<path d="M406.534,202.302L378.817,202.302C376.62,202.302 374.838,204.214 374.838,206.572L374.838,218.844C374.838,221.203 376.62,223.115 378.817,223.115L406.534,223.115C408.731,223.115 410.513,221.203 410.513,218.844L410.513,206.572C410.513,204.214 408.731,202.302 406.534,202.302Z" fill="#3F3D56"/>
<path d="M464.699,214.572L436.982,214.572C434.785,214.572 433.003,216.484 433.003,218.843L433.003,218.843C433.003,221.202 434.785,223.114 436.982,223.114L464.699,223.114C466.896,223.114 468.678,221.202 468.678,218.843C468.678,216.484 466.896,214.572 464.699,214.572Z" fill="#6C63FF"/>
</svg>
