<svg width="522" height="462" viewBox="0 0 522 462" fill="none" xmlns="http://www.w3.org/2000/svg" xmlns:xlink="http://www.w3.org/1999/xlink">
<path d="M460.334,460.048L460.345,459.51C460.58,450.479 462.705,441.61 466.572,433.519C470.44,425.428 475.957,418.309 482.74,412.656C486.569,409.517 490.764,406.891 495.224,404.841L495.65,404.644L495.722,405.122C496.586,410.824 497.954,416.644 498.591,419.227L502.863,401.909L503.338,401.767C505.515,401.103 507.833,401.132 509.994,401.849C512.155,402.566 514.06,403.939 515.463,405.791C516.927,407.644 517.824,409.909 518.037,412.296C518.251,414.682 517.772,417.081 516.662,419.182C515.666,421.109 514.687,423.12 513.74,425.065C510.487,431.747 507.124,438.657 502.222,444.026C498.474,448.052 493.907,451.157 488.855,453.114C483.804,455.072 478.395,455.833 473.024,455.341L460.334,460.048Z" fill="#F2F2F2"/>
<path d="M407.068,452.04L399.635,452.039L396.098,422.25L407.07,422.251L407.068,452.04Z" fill="#FFB6B6"/>
<path d="M407.331,460.097L384.47,460.096L384.47,459.795C384.47,457.344 385.407,454.993 387.076,453.259C388.745,451.526 391.008,450.552 393.368,450.552L397.544,447.261L405.335,450.552L407.331,450.552L407.331,460.097Z" fill="#2F2E41"/>
<path d="M484.021,430.283L478.148,435.017L457.772,413.737L466.44,406.749L484.021,430.283Z" fill="#FFB6B6"/>
<path d="M488.983,436.479L470.923,451.04L470.746,450.803C469.299,448.866 468.652,446.412 468.947,443.98C469.242,441.547 470.455,439.336 472.319,437.833L473.676,432.573L481.774,430.211L483.35,428.939L488.983,436.479Z" fill="#2F2E41"/>
<path d="M451.864,286.155C451.864,286.155 451.357,294.22 450.717,305.749C450.612,307.64 451.231,309.694 451.12,311.751C451.047,313.116 450.246,314.443 450.171,315.866C450.093,317.368 451.199,318.697 451.12,320.25C451.043,321.767 449.781,323.508 449.705,325.061C448.885,341.776 445.914,361.786 448.889,367.379C450.355,370.136 472.688,408.328 472.688,408.328C472.688,408.328 462.276,424.552 459.301,419.144C455.372,412.001 425.09,378.582 425.09,372.2C425.09,365.826 418.085,318.056 418.085,318.056L413.2,346.326L410.96,351.927L411.663,355.215L410.216,359.653L410.138,364.045L408.728,372.2C408.728,372.2 412.968,435.74 410.58,437.509C408.186,439.286 396.591,442.477 395.223,439.286C393.862,436.095 388.648,372.973 388.648,372.973C388.648,372.973 387.22,344.046 385.673,317.16C385.584,315.599 384.528,313.714 384.446,312.176C384.349,310.391 385.019,308.074 384.93,306.343C384.833,304.357 383.985,302.959 383.903,301.058C383.271,286.371 383.174,274.797 384.305,273.036C387.718,267.72 390.79,263.471 390.79,263.471C390.79,263.471 439.578,251.063 451.864,267.009L451.864,286.155Z" fill="#2F2E41"/>
<path d="M407.985,134.051L419.748,133.367L428.614,138.394L453.266,283.425C453.266,283.425 428.065,295.526 412.447,290.891C396.829,286.255 380.382,286.516 380.382,286.516L392.367,147.958L402.035,138.686L407.985,134.051Z" fill="#E6E6E6"/>
<path d="M427.61,137.125L445.818,144.85C448.614,144.991 451.282,146.112 453.386,148.03C455.491,149.947 456.908,152.548 457.408,155.409L456.2,192.767L449.633,210.539L454.316,251.024L451.864,256.123L453.983,261.327C450.873,266.573 451.506,273.446 453.352,280.846L451.12,280.846L446.658,280.074C446.658,280.074 436.834,283.617 434.821,270.891C429.553,237.58 426.578,252.26 426.578,252.26L423.984,148.906L427.61,137.125Z" fill="#3F3D56"/>
<path d="M402.779,137.141L385.769,155.666C382.973,155.808 380.306,156.929 378.201,158.846C376.097,160.763 374.679,163.365 374.179,166.226L381.211,223.673L377.911,245.716L379.723,250.714L378.411,256.364L380.467,261.531L378.98,268.484L381.211,278.528L392.367,275.438L392.281,267.2L395.256,155.172L402.779,137.141Z" fill="#3F3D56"/>
<path d="M346.053,232.37L322.883,249.837C321.995,249.884 321.135,250.174 320.39,250.677C319.644,251.18 319.04,251.878 318.636,252.701C318.233,253.523 318.045,254.442 318.093,255.364C318.14,256.286 318.42,257.179 318.905,257.953C319.389,258.727 320.062,259.354 320.855,259.772C321.647,260.19 322.532,260.384 323.419,260.334C324.307,260.284 325.166,259.992 325.91,259.487C326.654,258.983 327.258,258.283 327.659,257.459L359.166,239.986L346.053,232.37Z" fill="#FFB6B6"/>
<path d="M378.236,158.774C373.832,160.884 362.953,214.905 359.761,216.051C356.568,217.196 357.787,217.024 357.339,217.98C356.891,218.936 356.783,223.218 353.718,223.72C350.652,224.223 334.458,239.56 334.458,239.56L338.563,253.776C338.563,253.776 369.726,235.28 378.319,225.039C386.911,214.797 391.538,162.126 391.538,162.126L392.416,156.871C392.416,156.871 382.64,156.664 378.236,158.774Z" fill="#3F3D56"/>
<path d="M448.117,225.238L427.468,245.837C426.595,246.011 425.782,246.42 425.11,247.024C424.437,247.628 423.93,248.406 423.639,249.278C423.348,250.151 423.284,251.087 423.452,251.994C423.62,252.901 424.015,253.745 424.598,254.443C425.18,255.14 425.929,255.666 426.769,255.968C427.609,256.269 428.511,256.335 429.383,256.159C430.256,255.983 431.069,255.572 431.739,254.966C432.41,254.36 432.915,253.581 433.204,252.708L462.111,230.916L448.117,225.238Z" fill="#FFB6B6"/>
<path d="M451.12,163.409C447.036,166.126 462.555,205.532 459.544,207.121C456.532,208.71 457.717,208.366 457.399,209.377C457.081,210.388 457.539,214.645 454.569,215.579C451.599,216.512 437.579,234.01 437.579,234.01L443.52,247.507C443.52,247.507 471.951,224.752 479.112,213.384C486.273,202.016 481.613,198.177 481.613,198.177C472.728,178.574 464.419,146.604 451.864,148.73C451.864,148.73 455.204,160.693 451.12,163.409Z" fill="#3F3D56"/>
<path d="M410.508,130.991C421.518,130.991 430.444,121.719 430.444,110.28C430.444,98.842 421.518,89.569 410.508,89.569C399.497,89.569 390.571,98.842 390.571,110.28C390.571,121.719 399.497,130.991 410.508,130.991Z" fill="#FFB6B6"/>
<path d="M430.696,123.626C430.696,123.626 426.305,124.876 423.75,125.573C423.882,123.597 424.706,121.748 425.124,119.816C425.542,117.884 425.451,115.611 424.069,114.247C422.687,112.882 419.807,113.414 419.585,115.377C418.415,112.779 417.243,110.176 416.069,107.569C412.721,114.729 405.875,108.627 398.411,110.437C394.603,111.368 389.831,110.968 387.819,107.483C388.95,106.497 389.902,105.31 390.632,103.977C389.472,104.331 388.265,104.49 387.056,104.448C387.084,103.201 387.399,101.979 387.976,100.886C388.553,99.792 389.374,98.858 390.37,98.163C391.444,97.434 388.787,94.839 389.724,93.926C391.645,92.062 392.935,93.328 394.07,90.871C394.802,89.351 395.93,88.076 397.325,87.19C398.721,86.304 400.327,85.842 401.963,85.858C405.225,85.937 411.072,85.904 412.337,89.027C416.372,86.284 421.988,87.059 425.931,89.937C429.209,92.32 432.939,99.522 433.762,103.588C434.585,107.654 432.771,120.082 430.696,123.626Z" fill="#2F2E41"/>
<path d="M183.754,78.036L56.095,78.036C53.799,78.066 51.577,77.192 49.877,75.59C48.176,73.987 47.123,71.774 46.93,69.398C46.847,68.13 47.016,66.858 47.426,65.661C47.836,64.463 48.478,63.367 49.313,62.438C50.148,61.509 51.157,60.769 52.279,60.262C53.401,59.756 54.611,59.494 55.834,59.493L183.754,59.493C186.121,59.493 188.391,60.47 190.064,62.209C191.738,63.947 192.678,66.306 192.678,68.764C192.678,71.223 191.738,73.582 190.064,75.32C188.391,77.059 186.121,78.036 183.754,78.036Z" fill="#6C63FF"/>
<path d="M257.185,93.102L47.281,93.102C47.084,93.102 46.895,93.02 46.755,92.876C46.616,92.731 46.537,92.534 46.537,92.329C46.537,92.124 46.616,91.928 46.755,91.783C46.895,91.638 47.084,91.557 47.281,91.557L257.185,91.557C257.383,91.557 257.571,91.638 257.711,91.783C257.851,91.928 257.929,92.124 257.929,92.329C257.929,92.534 257.851,92.731 257.711,92.876C257.571,93.02 257.383,93.102 257.185,93.102Z" fill="#E6E6E6"/>
<path d="M248.457,78.423L55.834,78.423C53.368,78.423 51.004,77.405 49.26,75.594C47.517,73.783 46.537,71.326 46.537,68.765C46.537,66.204 47.517,63.747 49.26,61.936C51.004,60.125 53.368,59.107 55.834,59.107L248.457,59.107C250.923,59.107 253.287,60.125 255.031,61.936C256.773,63.747 257.753,66.204 257.753,68.765C257.753,71.326 256.773,73.783 255.031,75.594C253.287,77.405 250.923,78.423 248.457,78.423ZM55.834,60.653C53.763,60.653 51.777,61.507 50.312,63.029C48.848,64.55 48.025,66.614 48.025,68.765C48.025,70.917 48.848,72.98 50.312,74.501C51.777,76.023 53.763,76.877 55.834,76.877L248.457,76.877C250.527,76.877 252.513,76.023 253.979,74.501C255.443,72.98 256.265,70.917 256.265,68.765C256.265,66.614 255.443,64.55 253.979,63.029C252.513,61.507 250.527,60.653 248.457,60.653L55.834,60.653Z" fill="#3F3D56"/>
<path d="M126.487,150.662L56.095,150.662C53.799,150.692 51.577,149.818 49.877,148.216C48.176,146.613 47.123,144.4 46.93,142.024C46.847,140.756 47.016,139.484 47.426,138.287C47.836,137.089 48.478,135.993 49.313,135.064C50.148,134.135 51.157,133.395 52.279,132.888C53.401,132.382 54.611,132.12 55.834,132.119L126.487,132.119C128.854,132.119 131.124,133.096 132.798,134.835C134.472,136.573 135.412,138.932 135.412,141.39C135.412,143.849 134.472,146.208 132.798,147.946C131.124,149.685 128.854,150.662 126.487,150.662Z" fill="#6C63FF"/>
<path d="M257.185,165.728L47.281,165.728C47.084,165.728 46.895,165.646 46.755,165.502C46.616,165.357 46.537,165.16 46.537,164.955C46.537,164.75 46.616,164.554 46.755,164.409C46.895,164.264 47.084,164.183 47.281,164.183L257.185,164.183C257.383,164.183 257.571,164.264 257.711,164.409C257.851,164.554 257.929,164.75 257.929,164.955C257.929,165.16 257.851,165.357 257.711,165.502C257.571,165.646 257.383,165.728 257.185,165.728Z" fill="#E6E6E6"/>
<path d="M248.457,151.048L55.834,151.048C53.368,151.048 51.004,150.03 49.26,148.219C47.517,146.408 46.537,143.951 46.537,141.39C46.537,138.829 47.517,136.372 49.26,134.561C51.004,132.75 53.368,131.732 55.834,131.732L248.457,131.732C250.923,131.732 253.287,132.75 255.031,134.561C256.773,136.372 257.753,138.829 257.753,141.39C257.753,143.951 256.773,146.408 255.031,148.219C253.287,150.03 250.923,151.048 248.457,151.048ZM55.834,133.278C53.763,133.278 51.777,134.132 50.312,135.654C48.848,137.175 48.025,139.239 48.025,141.39C48.025,143.542 48.848,145.605 50.312,147.126C51.777,148.648 53.763,149.502 55.834,149.502L248.457,149.502C250.527,149.502 252.513,148.648 253.979,147.126C255.443,145.605 256.265,143.542 256.265,141.39C256.265,139.239 255.443,137.175 253.979,135.654C252.513,134.132 250.527,133.278 248.457,133.278L55.834,133.278Z" fill="#3F3D56"/>
<path d="M220.939,223.287L56.095,223.287C53.799,223.317 51.577,222.443 49.877,220.841C48.176,219.238 47.123,217.025 46.93,214.649C46.847,213.381 47.016,212.109 47.426,210.912C47.836,209.714 48.478,208.618 49.313,207.689C50.148,206.76 51.157,206.02 52.279,205.513C53.401,205.007 54.611,204.745 55.834,204.744L220.94,204.744C223.306,204.744 225.577,205.721 227.25,207.46C228.924,209.198 229.864,211.557 229.864,214.015C229.864,216.474 228.924,218.833 227.25,220.571C225.577,222.31 223.306,223.287 220.939,223.287Z" fill="#6C63FF"/>
<path d="M257.185,238.353L47.281,238.353C47.084,238.353 46.895,238.271 46.755,238.127C46.616,237.982 46.537,237.785 46.537,237.58C46.537,237.375 46.616,237.179 46.755,237.034C46.895,236.889 47.084,236.808 47.281,236.808L257.185,236.808C257.383,236.808 257.571,236.889 257.711,237.034C257.851,237.179 257.929,237.375 257.929,237.58C257.929,237.785 257.851,237.982 257.711,238.127C257.571,238.271 257.383,238.353 257.185,238.353Z" fill="#E6E6E6"/>
<path d="M248.457,223.674L55.834,223.674C53.368,223.674 51.004,222.656 49.26,220.845C47.517,219.034 46.537,216.577 46.537,214.016C46.537,211.455 47.517,208.998 49.26,207.187C51.004,205.376 53.368,204.358 55.834,204.358L248.457,204.358C250.923,204.358 253.287,205.376 255.031,207.187C256.773,208.998 257.753,211.455 257.753,214.016C257.753,216.577 256.773,219.034 255.031,220.845C253.287,222.656 250.923,223.674 248.457,223.674ZM55.834,205.904C53.763,205.904 51.777,206.758 50.312,208.28C48.848,209.801 48.025,211.864 48.025,214.016C48.025,216.168 48.848,218.231 50.312,219.752C51.777,221.274 53.763,222.128 55.834,222.128L248.457,222.128C250.527,222.128 252.513,221.274 253.979,219.752C255.443,218.231 256.265,216.168 256.265,214.016C256.265,211.864 255.443,209.801 253.979,208.28C252.513,206.758 250.527,205.904 248.457,205.904L55.834,205.904Z" fill="#3F3D56"/>
<path d="M171.641,68.612L170.154,68.612L170.154,9.088L277.738,9.088L277.738,10.633L171.641,10.633L171.641,68.612Z" fill="#CCCCCC"/>
<path d="M282.337,18.459C287.243,18.459 291.221,14.327 291.221,9.23C291.221,4.132 287.243,0 282.337,0C277.43,0 273.452,4.132 273.452,9.23C273.452,14.327 277.43,18.459 282.337,18.459Z" fill="#CCCCCC"/>
<path d="M120.006,141.238L121.494,141.238L121.494,107.21L13.91,107.21L13.91,108.755L120.006,108.755L120.006,141.238Z" fill="#CCCCCC"/>
<path d="M9.311,116.58C14.218,116.58 18.196,112.448 18.196,107.351C18.196,102.253 14.218,98.121 9.311,98.121C4.405,98.121 0.427,102.253 0.427,107.351C0.427,112.448 4.405,116.58 9.311,116.58Z" fill="#CCCCCC"/>
<path d="M220.727,216.486L219.239,216.486L219.239,259.013L310.462,259.013L310.462,257.468L220.727,257.468L220.727,216.486Z" fill="#CCCCCC"/>
<path d="M315.06,268.101C319.967,268.101 323.944,263.968 323.944,258.871C323.944,253.774 319.967,249.642 315.06,249.642C310.153,249.642 306.176,253.774 306.176,258.871C306.176,263.968 310.153,268.101 315.06,268.101Z" fill="#CCCCCC"/>
<path d="M520.7,461.611L318.594,461.849C318.478,461.849 318.362,461.826 318.255,461.78C318.147,461.733 318.049,461.666 317.966,461.58C317.884,461.495 317.818,461.393 317.774,461.282C317.729,461.17 317.706,461.05 317.706,460.929C317.706,460.808 317.729,460.688 317.774,460.576C317.818,460.464 317.884,460.363 317.966,460.277C318.049,460.192 318.147,460.124 318.255,460.078C318.362,460.032 318.478,460.009 318.594,460.009L520.7,459.771C520.934,459.771 521.16,459.868 521.326,460.041C521.492,460.213 521.586,460.447 521.586,460.691C521.586,460.935 521.492,461.169 521.326,461.342C521.16,461.514 520.934,461.611 520.7,461.611Z" fill="#CACACA"/>
<path d="M439.28,137.143C438.817,136.388 438.088,135.85 437.249,135.644C436.41,135.437 435.527,135.578 434.786,136.036C435.879,134.458 435.056,131.761 433.342,130.671C431.401,129.436 428.948,129.64 426.684,129.886L408.123,131.9C405.983,132.132 403.784,132.382 401.878,133.422C399.973,134.461 398.406,136.489 398.516,138.721C397.061,138.167 395.508,137.948 393.963,138.08C392.438,138.33 390.933,139.488 390.77,141.084C390.509,143.644 393.437,145.123 395.822,145.825C400.25,147.128 404.677,148.432 409.105,149.735L407.74,150.038C416.453,150.829 425.225,149.511 433.365,146.187C435.231,145.423 437.119,144.508 438.425,142.927C439.732,141.347 440.302,138.936 439.28,137.143Z" fill="#E6E6E6"/>
</svg>
