<svg width="654" height="534" viewBox="0 0 654 534" fill="none" xmlns="http://www.w3.org/2000/svg" xmlns:xlink="http://www.w3.org/1999/xlink">
<path d="M43.884,401.312C40.788,401.312 37.685,401.466 34.655,401.777L34.214,401.822C14.115,403.968 -0.587,416.416 0.018,430.779L0.135,433.376C0.212,435.017 0.294,436.782 0.362,438.74C0.398,439.706 1.489,440.447 2.847,440.447L497.236,440.447C532.094,440.192 566.824,439.87 600.458,439.491C606.766,439.507 613.07,439.113 619.342,438.31C628.69,436.974 635.176,434.326 639.178,430.214L639.178,430.214C644.154,425.115 644.31,418.695 644.01,411.44C643.396,396.793 642.788,381.405 642.182,366.064C641.646,352.544 641.114,339.059 640.58,326.15C640.25,318.488 639.518,311.726 633.868,306.557C627.744,300.968 616.576,298.135 600.674,298.135C600.482,298.135 600.29,298.135 600.096,298.136C550.258,298.35 500.878,319.044 477.22,349.631C474.494,353.153 471.956,356.924 469.502,360.572C465.874,365.959 462.122,371.529 457.648,376.511C455.224,379.245 452.604,381.711 449.816,383.882C449.624,384.043 449.404,384.214 449.172,384.377C448.64,384.796 448.084,385.2 447.542,385.559C444.368,387.773 441.024,389.609 437.556,391.042L437.206,391.184C436.942,391.298 436.656,391.411 436.372,391.515C434.368,392.292 432.288,392.963 430.204,393.506C421.184,395.906 410.93,396.482 399.724,395.215C389.434,394.02 379.276,391.52 369.42,387.757C359.044,383.797 349.332,378.859 339.94,374.085C335.814,371.987 331.546,369.818 327.284,367.763C326.484,367.376 325.696,366.998 324.896,366.62C319.692,364.17 314.972,362.147 310.47,360.435C299.316,356.176 287.77,353.593 276.092,352.745C263.698,351.926 252.774,353.472 243.634,357.329C241.114,358.388 238.662,359.665 236.292,361.149C225.468,367.938 218.794,377.957 212.34,387.647C204.312,399.699 196.011,412.163 179.62,418.624C160.705,426.086 133.096,422.986 113.563,417.595C107.422,415.899 101.289,413.949 95.357,412.063C92.961,411.3 90.563,410.543 88.164,409.792C83.45,408.322 79.591,407.196 76.021,406.245L74.892,405.942C74.264,405.777 73.636,405.612 72.996,405.455C68.756,404.38 64.807,403.534 60.919,402.869L59.999,402.707C58.155,402.413 56.431,402.169 54.739,401.964L54.064,401.883C50.75,401.502 47.32,401.312 43.884,401.312Z" fill="#F2F2F2"/>
<path d="M555.111,417.342C569.023,402.203 589.714,394.591 607.071,403.08C589.267,415.017 575.533,434.174 568.299,457.163C565.536,466.041 563.228,476.262 556.432,481.015C552.203,483.973 546.942,484.117 542.201,482.69C537.459,481.262 533.113,478.4 528.826,475.566L527.607,475.533C533.082,453.907 541.2,432.48 555.111,417.342Z" fill="#E6E6E6"/>
<path d="M606.974,403.54C591.602,405.939 577.247,414.126 565.947,426.938C563.474,429.644 561.369,432.804 559.711,436.302C558.187,439.772 557.46,443.672 557.606,447.596C557.681,451.258 558.109,454.993 557.446,458.613C557.083,460.461 556.402,462.194 555.446,463.701C554.49,465.208 553.281,466.453 551.898,467.356C548.501,469.714 544.605,470.457 540.775,471.024C536.522,471.654 532.096,472.226 528.414,475.107C527.968,475.456 527.545,474.6 527.991,474.252C534.396,469.239 542.502,471.063 549.389,467.718C552.603,466.157 555.447,463.417 556.453,459.274C557.334,455.652 556.895,451.799 556.792,448.092C556.604,444.267 557.193,440.443 558.51,436.957C560.016,433.369 562.016,430.116 564.425,427.338C569.766,420.98 575.902,415.676 582.607,411.619C590.239,406.938 598.477,403.869 606.966,402.543C607.492,402.461 607.496,403.458 606.974,403.54Z" fill="#FFFFFF"/>
<path d="M569.384,422.554C567.862,419.973 567.148,416.822 567.372,413.664C567.595,410.506 568.741,407.547 570.604,405.315C570.982,404.865 571.579,405.554 571.2,406.005C569.462,408.079 568.395,410.836 568.192,413.777C567.989,416.718 568.663,419.65 570.093,422.043C570.403,422.564 569.693,423.072 569.384,422.554Z" fill="#FFFFFF"/>
<path d="M557.365,445.745C562.648,446.875 568.089,445.559 572.604,442.06C573.051,441.713 573.473,442.569 573.027,442.916C568.323,446.546 562.658,447.902 557.163,446.711C556.64,446.597 556.844,445.631 557.365,445.745Z" fill="#FFFFFF"/>
<path d="M590.306,408.258C590.723,409.405 591.369,410.409 592.186,411.179C593.004,411.95 593.967,412.464 594.99,412.674C595.515,412.78 595.309,413.746 594.788,413.64C593.659,413.402 592.596,412.833 591.691,411.984C590.786,411.135 590.067,410.031 589.597,408.768C589.545,408.654 589.53,408.52 589.557,408.393C589.583,408.266 589.649,408.156 589.74,408.085C589.834,408.018 589.946,407.999 590.052,408.031C590.158,408.063 590.249,408.145 590.306,408.258Z" fill="#FFFFFF"/>
<path d="M626.183,476.085C625.854,476.03 625.525,475.975 625.191,475.927C620.763,475.217 616.294,474.943 611.829,475.107C611.484,475.113 611.134,475.125 610.789,475.143C600.036,475.677 589.458,478.618 579.593,483.815C575.669,485.888 571.881,488.318 568.263,491.084C563.266,494.905 558.099,499.528 552.513,501.087C551.932,501.257 551.342,501.384 550.748,501.466L527.668,477.332C527.638,477.246 527.603,477.165 527.573,477.078L526.615,476.165C526.794,476.007 526.982,475.847 527.16,475.689C527.263,475.596 527.371,475.509 527.475,475.417C527.545,475.357 527.616,475.297 527.676,475.238C527.7,475.218 527.723,475.199 527.742,475.185C527.803,475.126 527.864,475.079 527.921,475.027C528.968,474.13 530.023,473.242 531.085,472.36C531.09,472.354 531.09,472.354 531.099,472.353C539.138,465.544 547.816,459.91 556.954,455.57C557.228,455.444 557.506,455.313 557.791,455.199C561.906,453.351 566.139,451.913 570.448,450.898C572.809,450.351 575.192,449.949 577.586,449.694C583.775,449.047 590.009,449.581 596.06,451.274C608.123,454.652 619.156,462.651 625.692,475.126C625.859,475.445 626.021,475.759 626.183,476.085Z" fill="#E6E6E6"/>
<path d="M625.878,476.385C612.408,467.124 596.864,463.223 581.454,465.238C578.131,465.6 574.875,466.593 571.807,468.18C568.86,469.842 566.336,472.428 564.496,475.667C562.73,478.645 561.209,481.939 558.875,484.347C557.665,485.559 556.256,486.448 554.742,486.955C553.227,487.463 551.641,487.579 550.087,487.294C546.199,486.707 542.718,484.468 539.377,482.136C535.667,479.546 531.848,476.785 527.472,476.409C526.941,476.363 527.031,475.372 527.56,475.418C535.174,476.073 540.736,483.422 547.903,485.759C551.248,486.85 554.884,486.729 557.753,484.154C560.262,481.901 561.832,478.506 563.599,475.472C565.355,472.28 567.732,469.656 570.522,467.83C573.513,466.059 576.731,464.917 580.04,464.45C587.474,463.257 595.018,463.483 602.394,465.12C610.821,466.931 618.93,470.47 626.369,475.583C626.829,475.9 626.335,476.7 625.878,476.385Z" fill="#FFFFFF"/>
<path d="M586.385,464.236C586.456,461.068 587.457,458.033 589.21,455.674C590.963,453.316 593.353,451.786 595.953,451.359C596.479,451.274 596.613,452.258 596.086,452.343C593.663,452.735 591.437,454.16 589.809,456.361C588.18,458.561 587.257,461.393 587.205,464.343C587.193,464.984 586.373,464.873 586.385,464.236Z" fill="#FFFFFF"/>
<path d="M565.226,474.014C568.881,478.758 573.881,481.663 579.231,482.152C579.761,482.2 579.671,483.191 579.142,483.143C573.576,482.622 568.377,479.585 564.583,474.639C564.222,474.167 564.867,473.545 565.226,474.014Z" fill="#FFFFFF"/>
<path d="M610.217,468.033C609.978,469.252 609.993,470.523 610.262,471.733C610.53,472.943 611.043,474.054 611.755,474.965C612.121,475.431 611.476,476.053 611.112,475.59C610.33,474.579 609.764,473.351 609.465,472.015C609.166,470.679 609.143,469.275 609.397,467.926C609.412,467.796 609.467,467.678 609.551,467.596C609.636,467.514 609.743,467.474 609.851,467.484C609.96,467.499 610.059,467.565 610.128,467.668C610.196,467.77 610.228,467.902 610.217,468.033Z" fill="#FFFFFF"/>
<path d="M190.946,432.397C202.337,411.533 222.714,396.44 243.233,399.688C226.941,418.436 216.665,443.54 214.225,470.557C213.314,480.98 213.201,492.688 207.027,500.055C203.186,504.639 197.592,506.561 192.192,506.627C186.792,506.693 181.484,505.092 176.246,503.501L174.934,503.875C175.809,478.906 179.555,453.262 190.946,432.397Z" fill="#E6E6E6"/>
<path d="M243.235,400.212C227.347,407.942 213.88,421.521 204.746,439.021C202.724,442.746 201.201,446.833 200.234,451.13C199.403,455.354 199.524,459.769 200.584,463.917C201.508,467.808 202.826,471.66 202.95,475.754C202.988,477.852 202.659,479.935 201.983,481.868C201.308,483.8 200.302,485.539 199.031,486.969C195.941,490.632 191.946,492.736 187.98,494.629C183.576,496.731 178.974,498.831 175.7,503.149C175.303,503.672 174.654,502.898 175.05,502.376C180.746,494.863 189.835,494.09 196.431,488.199C199.509,485.449 201.919,481.563 202.041,476.795C202.148,472.624 200.792,468.652 199.828,464.721C198.745,460.693 198.495,456.406 199.1,452.234C199.883,447.891 201.273,443.74 203.21,439.96C207.458,431.365 212.798,423.631 219.035,417.039C226.119,409.469 234.224,403.418 242.997,399.148C243.54,398.884 243.775,399.949 243.235,400.212Z" fill="#FFFFFF"/>
<path d="M207.412,433.177C205.189,430.928 203.7,427.798 203.212,424.345C202.723,420.893 203.267,417.343 204.746,414.33C205.046,413.722 205.843,414.258 205.542,414.867C204.161,417.67 203.655,420.976 204.115,424.19C204.575,427.404 205.972,430.313 208.052,432.393C208.504,432.845 207.861,433.627 207.412,433.177Z" fill="#FFFFFF"/>
<path d="M199.9,462.019C205.81,461.453 211.327,458.218 215.349,452.958C215.747,452.437 216.397,453.211 215.999,453.731C211.804,459.195 206.058,462.548 199.907,463.12C199.32,463.174 199.317,462.073 199.9,462.019Z" fill="#FFFFFF"/>
<path d="M226.495,410.858C227.205,411.944 228.128,412.801 229.18,413.351C230.232,413.901 231.38,414.126 232.522,414.008C233.108,413.944 233.111,415.046 232.529,415.109C231.267,415.233 229.998,414.982 228.835,414.378C227.672,413.773 226.648,412.834 225.855,411.642C225.772,411.537 225.726,411.398 225.725,411.254C225.724,411.109 225.769,410.969 225.85,410.863C225.935,410.76 226.051,410.701 226.172,410.7C226.292,410.699 226.409,410.756 226.495,410.858Z" fill="#FFFFFF"/>
<path d="M280.492,471.348C280.128,471.4 279.763,471.452 279.395,471.512C274.495,472.241 269.653,473.449 264.915,475.125C264.547,475.247 264.176,475.378 263.811,475.513C252.433,479.697 241.797,486.396 232.443,495.269C228.724,498.803 225.233,502.675 222,506.849C217.536,512.615 213.075,519.295 207.459,522.839C206.877,523.216 206.276,523.55 205.659,523.838L175.414,505.78C175.362,505.697 175.307,505.622 175.255,505.54L174.02,504.885C174.174,504.656 174.338,504.422 174.493,504.193C174.582,504.059 174.677,503.93 174.767,503.796C174.828,503.708 174.89,503.621 174.941,503.537C174.962,503.508 174.982,503.479 174.999,503.458C175.051,503.375 175.106,503.304 175.154,503.229C176.068,501.918 176.991,500.613 177.924,499.314C177.927,499.306 177.927,499.306 177.938,499.301C185.065,489.422 192.938,480.175 201.723,472.665C201.988,472.439 202.255,472.205 202.533,471.987C206.509,468.628 210.705,465.668 215.08,463.135C217.479,461.757 219.935,460.527 222.437,459.449C228.907,456.678 235.697,455.155 242.559,454.933C256.239,454.493 269.882,459.341 279.746,470.488C279.998,470.773 280.244,471.055 280.492,471.348Z" fill="#E6E6E6"/>
<path d="M280.235,471.771C263.695,466.391 246.172,467.441 230.155,474.773C226.683,476.278 223.43,478.433 220.514,481.161C217.746,483.929 215.641,487.542 214.419,491.625C213.217,495.404 212.349,499.437 210.407,502.797C209.392,504.499 208.09,505.923 206.587,506.975C205.085,508.027 203.415,508.684 201.687,508.902C197.394,509.58 193.155,508.355 189.044,506.983C184.48,505.459 179.759,503.79 174.992,504.857C174.414,504.986 174.282,503.896 174.859,503.767C183.152,501.91 190.794,507.902 198.998,507.993C202.826,508.036 206.688,506.686 209.163,502.967C211.327,499.715 212.225,495.556 213.415,491.717C214.558,487.714 216.496,484.109 219.059,481.218C221.85,478.32 225.029,476.016 228.46,474.406C236.137,470.632 244.257,468.34 252.523,467.612C261.953,466.718 271.441,467.779 280.575,470.749C281.14,470.933 280.796,471.954 280.235,471.771Z" fill="#FFFFFF"/>
<path d="M235.197,472.046C234.543,468.634 234.915,465.052 236.246,461.941C237.578,458.829 239.781,456.39 242.464,455.059C243.008,454.792 243.377,455.8 242.833,456.067C240.332,457.301 238.28,459.573 237.045,462.474C235.81,465.374 235.475,468.712 236.099,471.886C236.234,472.575 235.331,472.732 235.197,472.046Z" fill="#FFFFFF"/>
<path d="M214.82,489.612C219.821,493.457 225.839,494.885 231.673,493.611C232.251,493.484 232.383,494.573 231.806,494.7C225.733,496.013 219.473,494.512 214.276,490.496C213.781,490.113 214.328,489.231 214.82,489.612Z" fill="#FFFFFF"/>
<path d="M261.561,468.1C261.586,469.484 261.896,470.838 262.462,472.042C263.027,473.246 263.832,474.261 264.803,474.997C265.302,475.372 264.755,476.254 264.259,475.881C263.189,475.063 262.302,473.94 261.674,472.612C261.047,471.283 260.698,469.789 260.659,468.261C260.645,468.117 260.677,467.972 260.749,467.856C260.82,467.74 260.925,467.661 261.043,467.635C261.163,467.615 261.284,467.652 261.381,467.739C261.478,467.826 261.543,467.956 261.561,468.1Z" fill="#FFFFFF"/>
<path d="M272.016,275.968C272.772,275.06 273.354,273.963 273.72,272.754C274.087,271.545 274.23,270.253 274.138,268.97C274.047,267.688 273.724,266.445 273.192,265.329C272.66,264.213 271.931,263.252 271.058,262.513L282.963,192.935L270.119,197.828L260.541,265.139C259.61,266.993 259.275,269.194 259.598,271.326C259.921,273.459 260.881,275.374 262.296,276.709C263.71,278.043 265.481,278.705 267.272,278.569C269.064,278.432 270.752,277.507 272.016,275.968Z" fill="#FFB6B6"/>
<path d="M299.533,89.983L291.577,82.731C291.577,82.731 284.558,82.131 283.315,97.416C282.072,112.701 274.289,171.364 274.289,171.364L262.115,239.459L278.968,243.926L292.007,170.44L305.06,119.742L299.533,89.983Z" fill="#E6E6E6"/>
<path d="M293.472,215.983L255.308,180.147C254.713,179.588 254.327,178.766 254.233,177.863C254.14,176.96 254.346,176.049 254.808,175.33L280.775,135.001C281.238,134.283 281.918,133.816 282.666,133.703C283.414,133.59 284.169,133.84 284.764,134.398L322.928,170.234C323.523,170.794 323.909,171.615 324.003,172.518C324.096,173.421 323.889,174.332 323.427,175.051L297.461,215.38C296.997,216.098 296.317,216.565 295.57,216.678C294.822,216.791 294.067,216.541 293.472,215.983Z" fill="#3F3D56"/>
<path d="M293.262,212.275L258.335,179.479C257.808,178.982 257.464,178.253 257.381,177.451C257.298,176.649 257.482,175.84 257.892,175.202L281.432,138.641C281.843,138.004 282.447,137.59 283.111,137.489C283.775,137.389 284.445,137.611 284.974,138.106L319.9,170.902C320.428,171.399 320.771,172.128 320.854,172.93C320.937,173.732 320.754,174.541 320.344,175.179L296.804,211.74C296.392,212.377 295.789,212.791 295.125,212.892C294.461,212.992 293.791,212.77 293.262,212.275Z" fill="#FFFFFF"/>
<path d="M262.914,178.549C262.782,178.425 262.697,178.243 262.676,178.042C262.655,177.842 262.701,177.64 262.803,177.48L274.679,159.036C274.781,158.877 274.932,158.773 275.098,158.748C275.181,158.736 275.264,158.743 275.344,158.769C275.424,158.796 275.499,158.841 275.564,158.903C275.629,158.964 275.684,159.04 275.725,159.127C275.766,159.214 275.792,159.31 275.803,159.41C275.813,159.509 275.807,159.61 275.785,159.706C275.763,159.803 275.726,159.893 275.675,159.972L263.8,178.415C263.697,178.575 263.546,178.678 263.38,178.703C263.214,178.728 263.046,178.673 262.914,178.549Z" fill="#E4E4E4"/>
<path d="M264.882,180.397C264.75,180.273 264.665,180.09 264.644,179.89C264.623,179.69 264.669,179.487 264.772,179.328L276.647,160.884C276.75,160.725 276.9,160.621 277.067,160.596C277.233,160.571 277.4,160.626 277.532,160.75C277.664,160.874 277.75,161.057 277.771,161.257C277.792,161.458 277.746,161.66 277.643,161.82L265.768,180.263C265.665,180.422 265.514,180.526 265.348,180.551C265.182,180.576 265.015,180.521 264.882,180.397Z" fill="#E4E4E4"/>
<path d="M273.578,171.796C273.446,171.672 273.361,171.489 273.34,171.289C273.319,171.088 273.365,170.886 273.467,170.727L278.615,162.732C278.666,162.653 278.729,162.586 278.801,162.537C278.873,162.487 278.953,162.455 279.035,162.443C279.117,162.43 279.201,162.437 279.281,162.464C279.361,162.49 279.436,162.535 279.501,162.597C279.567,162.658 279.621,162.735 279.662,162.822C279.703,162.909 279.73,163.005 279.74,163.105C279.75,163.204 279.744,163.305 279.722,163.401C279.7,163.498 279.662,163.588 279.611,163.667L274.464,171.662C274.361,171.821 274.21,171.925 274.044,171.95C273.878,171.975 273.71,171.92 273.578,171.796Z" fill="#E4E4E4"/>
<path d="M276.232,187.485C276.1,187.361 276.014,187.178 275.993,186.978C275.973,186.778 276.019,186.575 276.121,186.416L294.868,157.299C294.919,157.22 294.982,157.154 295.054,157.105C295.126,157.055 295.206,157.023 295.288,157.011C295.37,156.998 295.454,157.006 295.534,157.032C295.614,157.059 295.688,157.104 295.754,157.165C295.819,157.227 295.874,157.303 295.915,157.39C295.956,157.477 295.982,157.573 295.993,157.672C296.003,157.771 295.997,157.872 295.975,157.969C295.953,158.065 295.915,158.156 295.865,158.235L277.117,187.351C277.014,187.51 276.863,187.614 276.697,187.639C276.531,187.664 276.364,187.609 276.232,187.485Z" fill="#E4E4E4"/>
<path d="M278.2,189.334C278.068,189.21 277.982,189.027 277.962,188.827C277.941,188.626 277.987,188.424 278.089,188.265L296.836,159.148C296.887,159.069 296.951,159.003 297.023,158.953C297.095,158.904 297.174,158.872 297.256,158.859C297.338,158.847 297.422,158.854 297.502,158.881C297.582,158.907 297.656,158.953 297.722,159.014C297.787,159.075 297.842,159.152 297.883,159.239C297.924,159.326 297.95,159.422 297.961,159.521C297.971,159.62 297.965,159.721 297.943,159.817C297.921,159.914 297.884,160.004 297.833,160.083L279.085,189.2C278.983,189.359 278.832,189.463 278.666,189.488C278.5,189.513 278.332,189.458 278.2,189.334Z" fill="#E4E4E4"/>
<path d="M282.668,193.529C282.536,193.405 282.45,193.222 282.429,193.022C282.409,192.822 282.454,192.619 282.557,192.46L301.304,163.343C301.355,163.264 301.418,163.198 301.49,163.148C301.562,163.099 301.642,163.067 301.724,163.055C301.806,163.042 301.89,163.05 301.97,163.076C302.049,163.103 302.124,163.148 302.19,163.209C302.255,163.271 302.31,163.347 302.351,163.434C302.392,163.521 302.418,163.617 302.428,163.716C302.439,163.815 302.433,163.916 302.411,164.013C302.389,164.109 302.351,164.199 302.3,164.278L283.553,193.395C283.45,193.554 283.299,193.658 283.133,193.683C282.967,193.708 282.8,193.653 282.668,193.529Z" fill="#E4E4E4"/>
<path d="M284.636,195.377C284.504,195.252 284.418,195.07 284.397,194.87C284.377,194.669 284.423,194.467 284.525,194.307L303.272,165.191C303.323,165.112 303.386,165.046 303.458,164.996C303.531,164.947 303.61,164.915 303.692,164.902C303.774,164.89 303.858,164.897 303.938,164.924C304.018,164.95 304.092,164.996 304.158,165.057C304.223,165.118 304.278,165.195 304.319,165.282C304.36,165.369 304.386,165.465 304.397,165.564C304.407,165.663 304.401,165.764 304.379,165.86C304.357,165.957 304.319,166.047 304.269,166.126L285.521,195.243C285.419,195.402 285.268,195.506 285.102,195.531C284.936,195.556 284.768,195.5 284.636,195.377Z" fill="#E4E4E4"/>
<path d="M289.104,199.572C288.972,199.448 288.886,199.265 288.865,199.065C288.844,198.865 288.89,198.662 288.993,198.503L307.74,169.386C307.791,169.307 307.854,169.241 307.926,169.191C307.998,169.142 308.078,169.11 308.16,169.098C308.242,169.085 308.326,169.093 308.405,169.119C308.485,169.146 308.56,169.191 308.626,169.252C308.691,169.314 308.746,169.39 308.787,169.477C308.828,169.564 308.854,169.66 308.864,169.759C308.875,169.858 308.869,169.959 308.847,170.056C308.825,170.152 308.787,170.242 308.736,170.321L289.989,199.438C289.886,199.597 289.735,199.701 289.569,199.726C289.403,199.751 289.236,199.696 289.104,199.572Z" fill="#E4E4E4"/>
<path d="M291.072,201.42C290.94,201.295 290.854,201.113 290.833,200.913C290.813,200.712 290.858,200.51 290.961,200.35L309.708,171.234C309.811,171.075 309.962,170.972 310.128,170.947C310.294,170.922 310.461,170.978 310.592,171.102C310.724,171.226 310.81,171.408 310.831,171.608C310.852,171.808 310.807,172.01 310.704,172.169L291.957,201.286C291.854,201.445 291.703,201.549 291.537,201.574C291.371,201.599 291.204,201.543 291.072,201.42Z" fill="#E4E4E4"/>
<path d="M259.74,235.234C259.883,235.234 260,235.094 260,234.921C260,234.748 259.883,234.608 259.74,234.608C259.596,234.608 259.48,234.748 259.48,234.921C259.48,235.094 259.596,235.234 259.74,235.234Z" fill="#FFFFFF"/>
<path d="M297.488,19.668C296.577,25.58 295.083,31.339 293.037,36.822C281.326,66.742 314.678,56.989 326.597,56.989C339.628,56.989 352.097,65.265 350.192,28.495C349.379,12.788 339.628,0 326.597,0C315.466,0 299.816,5.975 297.488,19.668Z" fill="#2F2E41"/>
<path d="M338.744,458.477L327.641,458.477L322.357,406.76L338.744,406.76L338.744,458.477Z" fill="#FFB6B6"/>
<path d="M344.604,481.709L336.641,481.709L335.22,472.631L331.58,481.709L310.463,481.709C309.45,481.709 308.464,481.318 307.649,480.594C306.834,479.869 306.231,478.849 305.93,477.682C305.629,476.515 305.644,475.262 305.975,474.107C306.305,472.951 306.932,471.953 307.765,471.259L324.629,457.193L324.629,448.016L342.367,449.294L344.604,481.709Z" fill="#2F2E41"/>
<path d="M404.706,441.556L395.796,449.557L366.002,411.865L379.152,400.056L404.706,441.556Z" fill="#FFB6B6"/>
<path d="M420.887,455.976L414.498,461.713L408.872,455.453L410.437,465.361L393.491,480.578C392.678,481.308 391.694,481.705 390.682,481.711C389.67,481.717 388.682,481.332 387.864,480.613C387.046,479.894 386.439,478.877 386.133,477.712C385.827,476.547 385.837,475.294 386.162,474.136L392.745,450.697L388.21,443.333L403.076,431.576L420.887,455.976Z" fill="#2F2E41"/>
<path d="M302.38,220.459L355.085,210.546L344.604,172.468L302.38,172.468L302.38,220.459Z" fill="#FFB6B6"/>
<path d="M351.67,191.646C351.67,191.646 372.736,213.625 363.016,276.281L351.15,337.674L383.48,405.456L367.041,416.284L327.201,349.414L308.97,297.772L299.327,207.264L351.67,191.646Z" fill="#2F2E41"/>
<path d="M319.019,312.489L317.751,336.186L321.461,406.358L339.875,414.015L343.362,342.117L319.019,312.489Z" fill="#2F2E41"/>
<path d="M313.357,64.876L333.73,65.836L341.85,82.112L360.375,86.48L349.316,154.042L351.349,192.498L332.904,192.362C319.61,192.264 306.754,198.097 296.802,208.741L297.354,158.822L289.42,121.558L291.203,82.485L306.106,80.235L313.357,64.876Z" fill="#E6E6E6"/>
<path d="M324.644,56.982C335.234,56.982 343.818,46.615 343.818,33.827C343.818,21.039 335.234,10.672 324.644,10.672C314.055,10.672 305.47,21.039 305.47,33.827C305.47,46.615 314.055,56.982 324.644,56.982Z" fill="#FFB6B6"/>
<path d="M311.623,10.223C314.983,7.75 318.831,6.412 322.766,6.349C326.701,6.286 330.577,7.501 333.99,9.867C337.403,12.233 340.226,15.663 342.166,19.797C344.105,23.932 345.089,28.62 345.015,33.371C335.245,36.334 324.981,38.601 314.561,34.08L312.101,26.807L310.65,34.085C307.477,35.651 304.296,36.977 301.115,34.07C300.985,29.332 301.887,24.636 303.731,20.452C305.575,16.267 308.296,12.74 311.623,10.223Z" fill="#2F2E41"/>
<path d="M356.828,239.182L359.413,267.509C359.593,268.216 359.956,268.835 360.448,269.274C360.941,269.713 361.537,269.95 362.15,269.95L374.064,269.95C374.676,269.951 375.273,269.713 375.765,269.274C376.258,268.835 376.621,268.216 376.801,267.509L378.942,245.798C379.56,246.164 380.241,246.347 380.929,246.333C381.617,246.319 382.292,246.108 382.9,245.718C383.507,245.327 384.029,244.768 384.423,244.086C384.817,243.404 385.071,242.619 385.164,241.796C385.257,240.973 385.188,240.134 384.961,239.35C384.733,238.565 384.355,237.857 383.857,237.283C383.359,236.71 382.756,236.287 382.096,236.05C381.436,235.813 380.74,235.768 380.063,235.92C379.796,235.539 379.463,235.233 379.088,235.023C378.713,234.814 378.304,234.706 377.891,234.707L359.565,234.707C359.117,234.707 358.675,234.834 358.275,235.078C357.875,235.322 357.528,235.675 357.262,236.111C356.996,236.546 356.818,237.051 356.742,237.584C356.667,238.117 356.696,238.665 356.828,239.182ZM379.316,244.33L380.627,239.182C380.779,238.588 380.794,237.955 380.671,237.352C380.727,237.348 380.779,237.332 380.836,237.332C381.659,237.332 382.449,237.727 383.031,238.43C383.614,239.133 383.941,240.086 383.941,241.081C383.941,242.075 383.614,243.029 383.031,243.732C382.449,244.435 381.659,244.83 380.836,244.83C380.302,244.826 379.778,244.654 379.316,244.33Z" fill="#6C63FF"/>
<path d="M374.794,269.97C374.042,269.057 373.465,267.956 373.104,266.745C372.742,265.534 372.605,264.241 372.701,262.959C372.798,261.677 373.126,260.436 373.663,259.323C374.2,258.211 374.932,257.254 375.809,256.521L364.197,186.87L377.02,191.842L386.315,259.211C387.238,261.071 387.564,263.274 387.232,265.404C386.899,267.535 385.931,269.444 384.511,270.77C383.091,272.096 381.318,272.747 379.527,272.599C377.736,272.452 376.052,271.516 374.794,269.97Z" fill="#FFB6B6"/>
<path d="M352.418,93.732L360.374,86.48C360.374,86.48 367.393,85.88 368.636,101.165C369.879,116.45 377.662,175.113 377.662,175.113L389.836,243.208L372.984,247.675L359.944,174.189L346.891,123.491L352.418,93.732Z" fill="#E6E6E6"/>
<path d="M283.752,157.135C286.239,157.135 288.256,154.7 288.256,151.697C288.256,148.693 286.239,146.258 283.752,146.258C281.265,146.258 279.248,148.693 279.248,151.697C279.248,154.7 281.265,157.135 283.752,157.135Z" fill="#6C63FF"/>
<path d="M140.137,521.571L149.523,521.57L153.988,477.852L140.135,477.852L140.137,521.571Z" fill="#FFB6B6"/>
<path d="M137.743,517.87L140.385,517.87L150.699,512.805L156.227,517.869C159.351,517.87 162.348,519.368 164.557,522.036C166.766,524.704 168.007,528.322 168.007,532.094L168.007,532.557L137.743,532.558L137.743,517.87Z" fill="#2F2E41"/>
<path d="M176.509,514.428L185.664,516.925L197.994,475.468L184.481,471.783L176.509,514.428Z" fill="#FFB6B6"/>
<path d="M174.848,510.182L177.425,510.885L188.41,508.688L192.878,515.098L192.879,515.098C195.926,515.93 198.575,518.189 200.244,521.378C201.912,524.568 202.462,528.427 201.775,532.108L201.69,532.558L172.17,524.509L174.848,510.182Z" fill="#2F2E41"/>
<path d="M122.954,296.688L131.442,411.523C131.442,411.523 128.262,480.465 138.523,504.725L153.405,504.725L160.774,405.227L161.699,338.444L193.605,394.786L173.283,503.097L191.599,505.075L224.576,387.532L188.347,277.187L122.954,296.688Z" fill="#2F2E41"/>
<path d="M131.843,113.817C143.932,113.817 153.732,101.983 153.732,87.384C153.732,72.786 143.932,60.951 131.843,60.951C119.755,60.951 109.955,72.786 109.955,87.384C109.955,101.983 119.755,113.817 131.843,113.817Z" fill="#FFB8B8"/>
<path d="M170.321,139.005L152.364,129.701L143.623,118.504L121.785,122.757L115.991,134.754L97.235,155.816L119.21,275.806L118.545,302.013C118.545,302.013 132.609,309.659 193.605,292.054C194.336,291.843 192.805,290.919 192.805,290.919L170.321,139.005Z" fill="#3F3D56"/>
<path d="M109.085,102.382C108.932,102.131 108.78,101.878 108.63,101.622C108.57,101.776 108.522,101.934 108.453,102.084L109.085,102.382Z" fill="#2F2E41"/>
<path d="M153.616,68.049C152.153,64.2 149.545,61.157 146.309,59.524C143.101,57.961 139.517,57.965 136.312,59.534C133.418,57.326 130.203,55.576 126.817,55.359C123.431,55.142 119.851,56.659 117.764,59.999C117.298,60.88 116.769,61.711 116.183,62.48C114.505,64.356 111.956,64.085 109.727,63.702C110.727,64.737 111.727,65.772 112.728,66.807C111.517,67.188 110.307,67.57 109.096,67.952C110.509,68.987 111.921,70.021 113.334,71.056C109.233,74.028 107.369,80.516 107.861,86.408C108.327,91.987 110.557,97.088 113.223,101.622C114.287,98.912 114.058,95.669 114.04,92.616C114.022,89.391 114.494,85.728 116.634,83.926C118.078,82.71 119.934,82.656 121.675,82.667C130.456,82.725 139.228,83.387 147.947,84.648C149.13,84.71 150.283,85.114 151.31,85.826C153.238,87.414 153.614,90.693 153.808,93.569C154.826,88.82 155.325,83.93 155.291,79.025C155.376,75.265 154.806,71.525 153.616,68.049Z" fill="#2F2E41"/>
<path d="M160.431,377.188C179.458,377.188 194.882,358.561 194.882,335.584C194.882,312.607 179.458,293.98 160.431,293.98C141.404,293.98 125.98,312.607 125.98,335.584C125.98,358.561 141.404,377.188 160.431,377.188Z" fill="#FFFFFF"/>
<path d="M160.431,293.056C158.66,293.056 156.892,293.217 155.141,293.536C154.245,293.694 153.373,293.897 152.507,294.147C146.152,295.916 140.328,299.783 135.686,305.316C131.045,310.849 127.767,317.831 126.22,325.482C124.672,333.134 124.916,341.154 126.923,348.648C128.93,356.142 132.622,362.816 137.587,367.924C138.176,368.525 138.773,369.107 139.393,369.662C143.863,373.686 149.059,376.371 154.556,377.496C160.053,378.621 165.692,378.153 171.01,376.132C176.327,374.11 181.172,370.593 185.144,365.869C189.116,361.145 192.102,355.349 193.857,348.959C195.612,342.569 196.085,335.766 195.238,329.112C194.391,322.458 192.247,316.142 188.983,310.683C185.72,305.225 181.429,300.781 176.465,297.716C171.502,294.652 166.006,293.054 160.431,293.056ZM160.431,376.263C153.268,376.272 146.292,373.508 140.526,368.377C139.899,367.822 139.294,367.249 138.704,366.639C133.867,361.711 130.278,355.237 128.349,347.959C126.419,340.681 126.228,332.893 127.796,325.489C129.364,318.086 132.628,311.366 137.214,306.1C141.8,300.834 147.523,297.236 153.725,295.718C154.582,295.506 155.439,295.339 156.312,295.21C157.679,295.005 159.054,294.904 160.431,294.905C169.365,294.905 177.933,299.191 184.25,306.819C190.567,314.448 194.116,324.795 194.116,335.584C194.116,346.373 190.567,356.719 184.25,364.348C177.933,371.977 169.365,376.263 160.431,376.263Z" fill="#3F3D56"/>
<path d="M177.329,321.717L143.533,321.717C142.295,321.717 141.292,322.929 141.292,324.424L141.292,324.557C141.292,326.052 142.295,327.264 143.533,327.264L177.329,327.264C178.567,327.264 179.57,326.052 179.57,324.557L179.57,324.424C179.57,322.929 178.567,321.717 177.329,321.717Z" transform="rotate(-360 160.431 324.49)" fill="#6C63FF"/>
<path d="M177.329,332.81L143.533,332.81C142.295,332.81 141.292,334.022 141.292,335.517L141.292,335.65C141.292,337.145 142.295,338.357 143.533,338.357L177.329,338.357C178.567,338.357 179.57,337.145 179.57,335.65L179.57,335.517C179.57,334.022 178.567,332.81 177.329,332.81Z" transform="rotate(-360 160.431 335.584)" fill="#6C63FF"/>
<path d="M177.329,343.905L143.533,343.905C142.295,343.905 141.292,345.117 141.292,346.612L141.292,346.745C141.292,348.24 142.295,349.452 143.533,349.452L177.329,349.452C178.567,349.452 179.57,348.24 179.57,346.745L179.57,346.612C179.57,345.117 178.567,343.905 177.329,343.905Z" transform="rotate(360 160.431 346.679)" fill="#6C63FF"/>
<path d="M545.858,520.16L536.016,520.159L531.334,474.317L545.859,474.318L545.858,520.16Z" fill="#9E616A"/>
<path d="M499.298,520.16L489.457,520.159L484.775,474.317L499.3,474.318L499.298,520.16Z" fill="#9E616A"/>
<path d="M499.645,532.558L469.381,532.557L469.381,532.094C469.381,528.322 470.622,524.704 472.831,522.036C475.04,519.368 478.036,517.87 481.16,517.869L481.161,517.869L486.689,512.805L497.003,517.87L499.645,517.87L499.645,532.558Z" fill="#2F2E41"/>
<path d="M547.467,532.558L517.203,532.557L517.203,532.094C517.203,528.322 518.444,524.704 520.653,522.036C522.862,519.368 525.858,517.87 528.982,517.869L528.983,517.869L534.511,512.805L544.825,517.87L547.467,517.87L547.467,532.558Z" fill="#2F2E41"/>
<path d="M489.644,248.853L474.687,358.836L478.758,375.226L473.417,386.834L481.26,488.774L478.076,497.24L486.972,503.864L505.075,503.864L506.035,411.577L510.507,398.028L510.507,390.56L519.61,334.285L521.286,413.094L523.933,426.665L521.709,436.328L524.615,443.098L532.335,505.876L552.633,505.876L551.064,491.27C552.832,490.19 554.252,488.43 555.102,486.268C555.951,484.106 556.181,481.664 555.756,479.326L554.593,472.924L557.241,453.996L562.065,348.398L560.705,263.194L536.96,241.266L489.644,248.853Z" fill="#2F2E41"/>
<path d="M523.933,107.62C534.349,107.62 542.792,97.424 542.792,84.846C542.792,72.268 534.349,62.071 523.933,62.071C513.518,62.071 505.074,72.268 505.074,84.846C505.074,97.424 513.518,107.62 523.933,107.62Z" fill="#9E616A"/>
<path d="M482.729,292.498C483.55,291.474 484.174,290.245 484.559,288.898C484.944,287.55 485.08,286.118 484.957,284.7C484.833,283.283 484.454,281.915 483.846,280.694C483.238,279.473 482.415,278.427 481.436,277.632L488.77,244.141L474.641,249.88L469.843,280.804C468.845,282.878 468.512,285.323 468.906,287.674C469.301,290.026 470.396,292.121 471.985,293.563C473.573,295.004 475.544,295.692 477.524,295.496C479.505,295.299 481.356,294.233 482.729,292.498Z" fill="#9E616A"/>
<path d="M490.447,131.7L487.414,130.94L484.827,132.67C484.827,132.67 477.603,144.303 477.603,154.967C477.603,165.63 468.772,268.389 468.772,268.389L484.827,277.114L497.671,196.652L490.447,131.7Z" fill="#E6E6E6"/>
<path d="M540.449,68.147C540.449,68.147 545.381,56.76 534.53,55.725C534.53,55.725 525.278,45.591 515.849,53.872C515.849,53.872 510.706,53.872 507.893,60.901C507.893,60.901 503.848,59.048 502.959,64.007C502.959,64.007 499.999,74.359 502.959,83.676C505.919,92.992 506.902,94.028 506.902,94.028C506.902,94.028 502.038,74.494 513.877,73.459C525.717,72.424 538.965,63.489 539.951,74.876C540.938,86.264 542.423,89.069 542.423,89.069C542.423,89.069 551.794,72.806 540.449,68.147Z" fill="#2F2E41"/>
<path d="M609.339,386.834C607.916,386.836 606.542,386.203 605.481,385.056L548.408,323.703C547.258,322.464 546.562,320.725 546.472,318.867C546.383,317.008 546.908,315.183 547.931,313.792L584.493,264.191C585.519,262.802 586.959,261.961 588.498,261.853C590.037,261.745 591.548,262.378 592.701,263.614L649.774,324.968C650.926,326.206 651.623,327.946 651.712,329.804C651.802,331.663 651.276,333.488 650.251,334.879L613.689,384.48C613.183,385.171 612.568,385.733 611.881,386.135C611.193,386.537 610.447,386.77 609.684,386.821C609.569,386.83 609.454,386.834 609.339,386.834Z" fill="#FFFFFF"/>
<path d="M609.338,387.284C607.824,387.287 606.361,386.613 605.233,385.393L548.16,324.04C546.936,322.721 546.195,320.87 546.1,318.892C546.004,316.914 546.563,314.972 547.652,313.49L584.214,263.89C585.306,262.412 586.839,261.517 588.476,261.402C590.114,261.287 591.722,261.961 592.949,263.276L650.023,324.63C651.248,325.948 651.99,327.799 652.085,329.777C652.18,331.756 651.621,333.699 650.53,335.179L613.968,384.78C613.429,385.515 612.775,386.114 612.044,386.541C611.312,386.969 610.517,387.217 609.706,387.272C609.583,387.28 609.461,387.284 609.338,387.284ZM588.838,263.193C588.175,263.191 587.52,263.36 586.915,263.687C586.31,264.014 585.77,264.492 585.33,265.09L548.768,314.691C547.942,315.814 547.519,317.287 547.591,318.788C547.663,320.288 548.225,321.692 549.153,322.692L606.227,384.045C606.687,384.54 607.223,384.92 607.805,385.165C608.388,385.409 609.004,385.513 609.619,385.47C610.234,385.427 610.836,385.237 611.391,384.913C611.946,384.589 612.442,384.136 612.852,383.58L649.414,333.979C650.241,332.856 650.666,331.383 650.593,329.882C650.521,328.382 649.958,326.977 649.029,325.978L591.955,264.625C591.097,263.701 589.987,263.191 588.838,263.193Z" fill="#3F3D56"/>
<path d="M630.035,339.859C629.419,339.86 628.823,339.586 628.363,339.091L583.563,290.931C583.315,290.666 583.113,290.345 582.968,289.985C582.823,289.626 582.738,289.235 582.719,288.836C582.699,288.437 582.745,288.037 582.853,287.66C582.962,287.282 583.131,286.934 583.351,286.635C583.571,286.337 583.838,286.093 584.136,285.92C584.434,285.746 584.758,285.645 585.088,285.622C585.419,285.599 585.75,285.656 586.062,285.788C586.374,285.92 586.662,286.126 586.909,286.393L631.709,334.553C632.09,334.962 632.359,335.502 632.48,336.1C632.601,336.699 632.569,337.327 632.387,337.903C632.206,338.479 631.884,338.974 631.463,339.323C631.043,339.672 630.545,339.859 630.035,339.859Z" fill="#6C63FF"/>
<path d="M621.49,351.451C620.873,351.452 620.278,351.179 619.818,350.683L575.018,302.523C574.771,302.258 574.57,301.937 574.427,301.577C574.283,301.218 574.199,300.829 574.18,300.43C574.161,300.032 574.207,299.633 574.315,299.256C574.424,298.88 574.592,298.532 574.812,298.234C575.032,297.937 575.298,297.694 575.595,297.52C575.893,297.346 576.215,297.245 576.545,297.222C576.875,297.199 577.205,297.254 577.517,297.385C577.829,297.517 578.117,297.72 578.363,297.986L623.164,346.146C623.545,346.555 623.814,347.095 623.935,347.693C624.056,348.292 624.024,348.92 623.842,349.496C623.661,350.071 623.338,350.567 622.918,350.916C622.498,351.265 622,351.452 621.49,351.451Z" fill="#6C63FF"/>
<path d="M612.945,363.045C612.328,363.046 611.733,362.772 611.273,362.276L566.472,314.117C566.225,313.852 566.024,313.531 565.879,313.171C565.735,312.812 565.651,312.422 565.632,312.023C565.612,311.625 565.658,311.226 565.767,310.848C565.875,310.471 566.044,310.124 566.264,309.826C566.484,309.527 566.75,309.284 567.048,309.111C567.345,308.937 567.669,308.836 567.999,308.813C568.329,308.79 568.659,308.846 568.971,308.977C569.284,309.109 569.571,309.313 569.818,309.579L614.618,357.739C614.999,358.148 615.268,358.688 615.389,359.286C615.511,359.885 615.478,360.513 615.297,361.089C615.115,361.665 614.793,362.16 614.373,362.509C613.953,362.859 613.455,363.045 612.945,363.045Z" fill="#6C63FF"/>
<path d="M561.712,294.474C561.137,293.23 560.795,291.848 560.71,290.427C560.625,289.005 560.799,287.579 561.22,286.247C561.641,284.916 562.299,283.712 563.147,282.721C563.995,281.73 565.012,280.975 566.128,280.51L566.176,245.868L578.607,255.804L576.655,287.177C577.178,289.492 576.979,291.958 576.096,294.108C575.214,296.258 573.709,297.942 571.867,298.841C570.025,299.741 567.974,299.793 566.102,298.988C564.23,298.183 562.668,296.577 561.712,294.474Z" fill="#9E616A"/>
<path d="M562.86,141.194L568.414,134.729L572.493,138.285C572.493,138.285 576.507,144.102 579.718,161.551C582.929,179.001 579.718,274.974 579.718,274.974L562.058,272.066L564.466,221.656L557.241,179.001L562.86,141.194Z" fill="#E6E6E6"/>
<path d="M571.061,136.307L552.351,125.514L539.648,111.286L516.485,111.076L509.012,122.807L489.286,130.899L492.573,213.043L490.332,219.36C490.332,219.36 491.894,221.064 492.607,222.016C493.321,222.969 491.621,230.947 491.621,230.947L490.663,239.626L493.321,241.919L489.866,246.848L489.008,254.617C489.008,254.617 549.32,236.514 560.715,266.503C561.318,268.087 559.835,252.602 559.835,252.602L558.352,241.266L559.823,231.091L562.065,228.384L558.305,223.843L560.715,202.3L571.061,136.307Z" fill="#3F3D56"/>
<path d="M146.761,318.414C147.225,316.99 147.425,315.46 147.347,313.933C147.269,312.406 146.915,310.918 146.309,309.574C145.703,308.23 144.861,307.063 143.841,306.154C142.821,305.246 141.649,304.619 140.407,304.317L136.251,267.461L124.2,280.182L129.994,313.231C129.712,315.784 130.216,318.374 131.41,320.509C132.604,322.645 134.405,324.177 136.471,324.816C138.538,325.454 140.727,325.156 142.623,323.976C144.52,322.796 145.992,320.817 146.761,318.414Z" fill="#FFB8B8"/>
<path d="M99.548,155.142L96.281,155.897L94.307,158.899C94.307,158.899 91.113,174.028 94.752,184.601C98.39,195.175 124.697,301.455 124.697,301.455L143.593,302.116L128.873,215.946L99.548,155.142Z" fill="#3F3D56"/>
<path d="M174.039,313.007C173.169,311.895 172.511,310.566 172.112,309.114C171.713,307.661 171.582,306.121 171.729,304.601C171.877,303.081 172.298,301.619 172.964,300.317C173.629,299.015 174.524,297.905 175.583,297.066L168.06,260.996L183.17,267.374L187.997,300.648C189.047,302.891 189.379,305.521 188.93,308.04C188.482,310.558 187.284,312.791 185.564,314.314C183.843,315.837 181.72,316.546 179.596,316.305C177.472,316.064 175.495,314.89 174.039,313.007Z" fill="#FFB8B8"/>
<path d="M167.438,140.25L170.702,139.48L173.461,141.377C173.461,141.377 181.096,153.977 180.984,165.426C180.872,176.875 189.276,287.337 189.276,287.337L171.947,296.459L159.001,209.874L167.438,140.25Z" fill="#3F3D56"/>
</svg>
