<svg width="30" height="40" viewBox="0 0 30 40" fill="none" xmlns="http://www.w3.org/2000/svg" xmlns:xlink="http://www.w3.org/1999/xlink">
<path d="M-0.142,21.645L25.858,39.645C26.158,39.853 26.509,39.975 26.873,39.997C27.238,40.019 27.601,39.942 27.924,39.772C28.247,39.603 28.518,39.348 28.707,39.036C28.896,38.724 28.996,38.366 28.996,38.001L28.996,2.001C28.996,1.636 28.897,1.278 28.708,0.966C28.519,0.653 28.248,0.398 27.925,0.229C27.602,0.059 27.238,-0.019 26.874,0.004C26.509,0.026 26.158,0.148 25.858,0.355L-0.142,18.355C-0.407,18.54 -0.623,18.786 -0.773,19.073C-0.922,19.359 -1,19.677 -1,20C-1,20.323 -0.922,20.642 -0.773,20.928C-0.623,21.214 -0.407,21.46 -0.142,21.645Z" fill="#000000"/>
</svg>
