<svg width="80" height="80" viewBox="0 0 80 80" fill="none" xmlns="http://www.w3.org/2000/svg" xmlns:xlink="http://www.w3.org/1999/xlink">
<path d="M73.333,0L6.667,0C4.899,0 3.203,0.702 1.953,1.953C0.702,3.203 0,4.899 0,6.667L0,73.333C0,75.101 0.702,76.797 1.953,78.047C3.203,79.298 4.899,80 6.667,80L73.333,80C75.101,80 76.797,79.298 78.047,78.047C79.298,76.797 80,75.101 80,73.333L80,6.667C80,4.899 79.298,3.203 78.047,1.953C76.797,0.702 75.101,0 73.333,0ZM63.333,43.333L43.333,43.333L43.333,63.333C43.333,64.217 42.982,65.065 42.357,65.69C41.732,66.315 40.884,66.667 40,66.667C39.116,66.667 38.268,66.315 37.643,65.69C37.018,65.065 36.667,64.217 36.667,63.333L36.667,43.333L16.667,43.333C15.783,43.333 14.935,42.982 14.31,42.357C13.685,41.732 13.333,40.884 13.333,40C13.333,39.116 13.685,38.268 14.31,37.643C14.935,37.018 15.783,36.667 16.667,36.667L36.667,36.667L36.667,16.667C36.667,15.783 37.018,14.935 37.643,14.31C38.268,13.685 39.116,13.333 40,13.333C40.884,13.333 41.732,13.685 42.357,14.31C42.982,14.935 43.333,15.783 43.333,16.667L43.333,36.667L63.333,36.667C64.217,36.667 65.065,37.018 65.69,37.643C66.315,38.268 66.667,39.116 66.667,40C66.667,40.884 66.315,41.732 65.69,42.357C65.065,42.982 64.217,43.333 63.333,43.333Z" fill="#000000"/>
</svg>
