<svg width="30" height="42" viewBox="0 0 30 42" fill="none" xmlns="http://www.w3.org/2000/svg" xmlns:xlink="http://www.w3.org/1999/xlink">
<path d="M0.86,22.645L26.86,40.645C27.16,40.853 27.512,40.974 27.876,40.996C28.24,41.019 28.603,40.941 28.926,40.772C29.25,40.603 29.52,40.348 29.709,40.036C29.898,39.724 29.998,39.366 29.998,39.001L29.998,3.001C29.999,2.636 29.899,2.278 29.71,1.965C29.521,1.653 29.251,1.398 28.927,1.229C28.604,1.059 28.241,0.981 27.876,1.003C27.512,1.026 27.161,1.147 26.86,1.355L0.86,19.355C0.596,19.54 0.379,19.786 0.23,20.072C0.08,20.359 0.002,20.677 0.002,21C0.002,21.323 0.08,21.641 0.23,21.928C0.379,22.214 0.596,22.46 0.86,22.645Z" fill="#000000"/>
</svg>
