<svg width="44" height="28" viewBox="0 0 44 28" fill="none" xmlns="http://www.w3.org/2000/svg" xmlns:xlink="http://www.w3.org/1999/xlink">
<path d="M32.8,8.14L31.759,7.06L31.758,7.061L32.8,8.14ZM34.2,6.79L33.159,5.71L33.159,5.71L34.2,6.79ZM34.2,21.21L35.241,20.131L35.241,20.13L34.2,21.21ZM32.8,19.86L33.841,18.78L33.841,18.78L32.8,19.86ZM2.5,10L2.5,6L-0.5,6L-0.5,10L2.5,10ZM2.5,6C2.5,5.015 2.503,4.427 2.56,4.005C2.586,3.813 2.616,3.716 2.634,3.672C2.638,3.662 2.642,3.656 2.644,3.652C2.646,3.648 2.647,3.646 2.647,3.646C2.647,3.646 2.647,3.646 2.646,3.647C2.646,3.648 2.646,3.648 2.647,3.647L0.525,1.525C-0.093,2.143 -0.318,2.894 -0.413,3.606C-0.503,4.273 -0.5,5.099 -0.5,6L2.5,6ZM2.647,3.647C2.648,3.646 2.648,3.646 2.647,3.646C2.646,3.647 2.646,3.647 2.646,3.647C2.646,3.647 2.648,3.646 2.652,3.644C2.656,3.642 2.662,3.638 2.672,3.634C2.716,3.616 2.813,3.586 3.005,3.56C3.427,3.503 4.015,3.5 5,3.5L5,0.5C4.099,0.5 3.273,0.497 2.606,0.587C1.894,0.682 1.143,0.907 0.525,1.525L2.647,3.647ZM5,3.5L11,3.5L11,0.5L5,0.5L5,3.5ZM11,3.5C14.813,3.5 17.523,3.503 19.578,3.78C21.59,4.05 22.749,4.558 23.595,5.404L25.717,3.284C24.221,1.786 22.323,1.122 19.978,0.806C17.676,0.497 14.729,0.5 11,0.5L11,3.5ZM23.595,5.404C24.441,6.251 24.949,7.411 25.22,9.423C25.496,11.478 25.5,14.187 25.5,18L28.5,18C28.5,14.271 28.503,11.324 28.193,9.023C27.877,6.678 27.213,4.781 25.717,3.284L23.595,5.404ZM25.5,18L25.5,22L28.5,22L28.5,18L25.5,18ZM25.5,22C25.5,22.985 25.497,23.573 25.44,23.995C25.414,24.187 25.384,24.284 25.366,24.328C25.362,24.338 25.358,24.344 25.356,24.348C25.354,24.352 25.353,24.354 25.353,24.354C25.353,24.354 25.353,24.354 25.354,24.353C25.354,24.352 25.354,24.352 25.353,24.353L27.475,26.475C28.093,25.857 28.318,25.106 28.413,24.394C28.503,23.727 28.5,22.901 28.5,22L25.5,22ZM25.353,24.353C25.352,24.354 25.352,24.354 25.353,24.354C25.354,24.353 25.354,24.353 25.354,24.353C25.354,24.353 25.352,24.354 25.348,24.356C25.344,24.358 25.338,24.362 25.328,24.366C25.284,24.384 25.187,24.414 24.995,24.44C24.573,24.497 23.985,24.5 23,24.5L23,27.5C23.901,27.5 24.727,27.503 25.394,27.413C26.106,27.318 26.857,27.093 27.475,26.475L25.353,24.353ZM23,24.5L17,24.5L17,27.5L23,27.5L23,24.5ZM17,24.5C13.187,24.5 10.477,24.497 8.422,24.22C6.41,23.95 5.251,23.442 4.405,22.596L2.283,24.716C3.779,26.214 5.677,26.878 8.022,27.194C10.324,27.503 13.271,27.5 17,27.5L17,24.5ZM4.405,22.596C3.559,21.749 3.051,20.589 2.78,18.577C2.504,16.522 2.5,13.813 2.5,10L-0.5,10C-0.5,13.729 -0.503,16.676 -0.193,18.977C0.123,21.322 0.787,23.219 2.283,24.716L4.405,22.596ZM33.841,9.22L35.241,7.87L33.159,5.71L31.759,7.06L33.841,9.22ZM35.241,7.87C36.727,6.437 37.724,5.481 38.495,4.923C39.306,4.335 39.37,4.558 39.202,4.489L40.346,1.715C38.952,1.14 37.679,1.809 36.735,2.493C35.75,3.206 34.573,4.347 33.159,5.71L35.241,7.87ZM39.202,4.489C39.021,4.414 39.221,4.282 39.362,5.257C39.496,6.186 39.5,7.552 39.5,9.6L42.5,9.6C42.5,7.654 42.504,6.024 42.331,4.829C42.166,3.68 41.753,2.296 40.346,1.715L39.202,4.489ZM39.5,9.6L39.5,18.4L42.5,18.4L42.5,9.6L39.5,9.6ZM39.5,18.4C39.5,20.448 39.496,21.814 39.362,22.743C39.221,23.718 39.021,23.586 39.202,23.511L40.346,26.285C41.753,25.704 42.166,24.32 42.331,23.171C42.504,21.976 42.5,20.346 42.5,18.4L39.5,18.4ZM39.202,23.511C39.369,23.442 39.306,23.665 38.494,23.077C37.723,22.519 36.726,21.563 35.241,20.131L33.159,22.289C34.572,23.653 35.749,24.794 36.734,25.507C37.678,26.191 38.953,26.86 40.346,26.285L39.202,23.511ZM35.241,20.13L33.841,18.78L31.759,20.94L33.159,22.29L35.241,20.13ZM33.841,18.78C32.866,17.84 32.695,17.629 32.614,17.439C32.533,17.251 32.5,16.989 32.5,15.646L29.5,15.646C29.5,16.747 29.479,17.736 29.854,18.617C30.229,19.494 30.958,20.168 31.759,20.94L33.841,18.78ZM32.5,15.646L32.5,12.354L29.5,12.354L29.5,15.646L32.5,15.646ZM32.5,12.354C32.5,11.011 32.534,10.75 32.613,10.563C32.695,10.372 32.866,10.161 33.842,9.219L31.758,7.061C30.958,7.833 30.229,8.507 29.855,9.384C29.478,10.264 29.5,11.253 29.5,12.354L32.5,12.354Z" fill="#000000"/>
</svg>
