<svg width="30" height="42" viewBox="0 0 30 42" fill="none" xmlns="http://www.w3.org/2000/svg" xmlns:xlink="http://www.w3.org/1999/xlink">
<path d="M-0.142,22.645L25.858,40.645C26.158,40.853 26.509,40.974 26.873,40.996C27.238,41.019 27.601,40.941 27.924,40.772C28.247,40.603 28.518,40.348 28.707,40.036C28.896,39.724 28.996,39.366 28.996,39.001L28.996,3.001C28.996,2.636 28.897,2.278 28.708,1.965C28.519,1.653 28.248,1.398 27.925,1.229C27.602,1.059 27.238,0.981 26.874,1.003C26.509,1.026 26.158,1.147 25.858,1.355L-0.142,19.355C-0.407,19.54 -0.623,19.786 -0.773,20.072C-0.922,20.359 -1,20.677 -1,21C-1,21.323 -0.922,21.641 -0.773,21.928C-0.623,22.214 -0.407,22.46 -0.142,22.645Z" fill="#000000"/>
</svg>
