<svg width="40" height="38" viewBox="0 0 40 38" fill="none" xmlns="http://www.w3.org/2000/svg" xmlns:xlink="http://www.w3.org/1999/xlink">
<path d="M37.85,17.188L3.851,1.188C3.508,1.027 3.127,0.967 2.752,1.013C2.376,1.06 2.022,1.213 1.729,1.453C1.437,1.693 1.219,2.011 1.1,2.37C0.981,2.73 0.967,3.115 1.059,3.482L3.483,13.18L18.999,18.998L3.483,24.816L1.059,34.514C0.965,34.882 0.978,35.268 1.097,35.628C1.215,35.988 1.433,36.307 1.726,36.548C2.019,36.789 2.374,36.941 2.75,36.987C3.127,37.033 3.508,36.971 3.851,36.808L37.85,20.808C38.194,20.647 38.485,20.391 38.688,20.07C38.892,19.75 39,19.378 39,18.998C39,18.619 38.892,18.247 38.688,17.926C38.485,17.606 38.194,17.35 37.85,17.188Z" fill="#000000"/>
</svg>
