<svg width="42" height="36" viewBox="0 0 42 36" fill="none" xmlns="http://www.w3.org/2000/svg" xmlns:xlink="http://www.w3.org/1999/xlink">
<path d="M41,5C39.454,5.7 37.788,6.16 36.061,6.38C37.828,5.32 39.193,3.64 39.836,1.62C38.169,2.62 36.322,3.32 34.375,3.72C32.789,2 30.56,1 28.031,1C23.313,1 19.458,4.84 19.458,9.58C19.458,10.26 19.538,10.92 19.679,11.54C12.532,11.18 6.167,7.76 1.931,2.58C1.188,3.84 0.767,5.32 0.767,6.88C0.767,9.86 2.272,12.5 4.601,14C3.176,14 1.851,13.6 0.686,13L0.686,13.06C0.686,17.22 3.658,20.7 7.593,21.48C6.33,21.826 5.003,21.874 3.718,21.62C4.263,23.325 5.331,24.817 6.772,25.886C8.212,26.955 9.953,27.547 11.749,27.58C8.704,29.981 4.931,31.279 1.048,31.26C0.365,31.26 -0.317,31.22 -1,31.14C2.815,33.58 7.352,35 12.21,35C28.031,35 36.724,21.92 36.724,10.58C36.724,10.2 36.724,9.84 36.704,9.46C38.39,8.26 39.836,6.74 41,5Z" fill="#FFFFFF"/>
</svg>
