<svg width="32" height="32" viewBox="0 0 32 32" fill="none" xmlns="http://www.w3.org/2000/svg" xmlns:xlink="http://www.w3.org/1999/xlink">
<path d="M28,12L20,12L20,4C20,2.939 19.579,1.922 18.828,1.172C18.078,0.421 17.061,0 16,0C14.939,0 13.922,0.421 13.172,1.172C12.421,1.922 12,2.939 12,4L12.142,12L4,12C2.939,12 1.922,12.421 1.172,13.172C0.421,13.922 0,14.939 0,16C0,17.061 0.421,18.078 1.172,18.828C1.922,19.579 2.939,20 4,20L12.142,19.858L12,28C12,29.061 12.421,30.078 13.172,30.828C13.922,31.579 14.939,32 16,32C17.061,32 18.078,31.579 18.828,30.828C19.579,30.078 20,29.061 20,28L20,19.858L28,20C29.061,20 30.078,19.579 30.828,18.828C31.579,18.078 32,17.061 32,16C32,14.939 31.579,13.922 30.828,13.172C30.078,12.421 29.061,12 28,12Z" fill="#000000"/>
</svg>
