<svg width="42" height="34" viewBox="0 0 42 34" fill="none" xmlns="http://www.w3.org/2000/svg" xmlns:xlink="http://www.w3.org/1999/xlink">
<path d="M41,3C39.454,3.7 37.788,4.16 36.061,4.38C37.828,3.32 39.193,1.64 39.836,-0.38C38.169,0.62 36.322,1.32 34.375,1.72C32.789,0 30.56,-1 28.031,-1C23.313,-1 19.458,2.84 19.458,7.58C19.458,8.26 19.538,8.92 19.679,9.54C12.532,9.18 6.167,5.76 1.931,0.58C1.188,1.84 0.767,3.32 0.767,4.88C0.767,7.86 2.272,10.5 4.601,12C3.176,12 1.851,11.6 0.686,11L0.686,11.06C0.686,15.22 3.658,18.7 7.593,19.48C6.33,19.826 5.003,19.874 3.718,19.62C4.263,21.325 5.331,22.817 6.772,23.886C8.212,24.955 9.953,25.547 11.749,25.58C8.704,27.981 4.931,29.279 1.048,29.26C0.365,29.26 -0.317,29.22 -1,29.14C2.815,31.58 7.352,33 12.21,33C28.031,33 36.724,19.92 36.724,8.58C36.724,8.2 36.724,7.84 36.704,7.46C38.39,6.26 39.836,4.74 41,3Z" fill="#FFFFFF"/>
</svg>
