<svg width="40" height="40" viewBox="0 0 40 40" fill="none" xmlns="http://www.w3.org/2000/svg" xmlns:xlink="http://www.w3.org/1999/xlink">
<path d="M39.807,10.267C39.106,7.86 37.809,5.669 36.037,3.897C34.264,2.124 32.074,0.828 29.667,0.127C29.011,-0.042 28.323,-0.042 27.667,0.127C27.007,0.319 26.408,0.677 25.927,1.167L21.467,5.647L2.387,24.707C1.786,25.332 1.395,26.129 1.267,26.987L0.047,35.307C-0.047,35.93 0.001,36.565 0.187,37.167C0.391,37.767 0.727,38.313 1.167,38.767C1.615,39.211 2.155,39.551 2.747,39.767C3.161,39.903 3.593,39.969 4.027,39.967L4.607,39.967L12.927,38.747C13.795,38.636 14.603,38.242 15.227,37.627L34.327,18.527L38.767,14.107C39.267,13.618 39.63,13.005 39.82,12.331C40.01,11.657 40.019,10.946 39.847,10.267L39.807,10.267ZM36.887,11.527C36.832,11.695 36.736,11.847 36.607,11.967L33.227,15.347L24.587,6.727L28.007,3.307C28.138,3.186 28.296,3.097 28.467,3.047L28.927,3.047C30.82,3.61 32.543,4.637 33.94,6.034C35.337,7.43 36.364,9.154 36.927,11.047C36.948,11.208 36.934,11.372 36.887,11.527Z" fill="#333333"/>
</svg>
