<svg width="36" height="42" viewBox="0 0 36 42" fill="none" xmlns="http://www.w3.org/2000/svg" xmlns:xlink="http://www.w3.org/1999/xlink">
<path d="M32,5L23.64,5C22.8,2.68 20.6,1 18,1C15.4,1 13.2,2.68 12.36,5L4,5C1.8,5 0,6.8 0,9L0,37C0,39.2 1.8,41 4,41L32,41C34.2,41 36,39.2 36,37L36,9C36,6.8 34.2,5 32,5ZM18,5C19.1,5 20,5.9 20,7C20,8.1 19.1,9 18,9C16.9,9 16,8.1 16,7C16,5.9 16.9,5 18,5ZM20,33L10,33C8.9,33 8,32.1 8,31C8,29.9 8.9,29 10,29L20,29C21.1,29 22,29.9 22,31C22,32.1 21.1,33 20,33ZM26,25L10,25C8.9,25 8,24.1 8,23C8,21.9 8.9,21 10,21L26,21C27.1,21 28,21.9 28,23C28,24.1 27.1,25 26,25ZM26,17L10,17C8.9,17 8,16.1 8,15C8,13.9 8.9,13 10,13L26,13C27.1,13 28,13.9 28,15C28,16.1 27.1,17 26,17Z" fill="#000000"/>
</svg>
