<svg width="40" height="40" viewBox="0 0 40 40" fill="none" xmlns="http://www.w3.org/2000/svg" xmlns:xlink="http://www.w3.org/1999/xlink">
<path d="M17.99,4.36L17.99,12.12C17.99,12.762 17.863,13.399 17.617,13.992C17.37,14.585 17.009,15.124 16.554,15.578C16.098,16.031 15.558,16.39 14.964,16.634C14.369,16.878 13.733,17.003 13.09,17L5.37,17C4.729,17.004 4.094,16.878 3.503,16.631C2.912,16.383 2.377,16.019 1.93,15.56C1.477,15.109 1.118,14.573 0.875,13.982C0.631,13.392 0.507,12.759 0.51,12.12L0.51,4.38C0.51,3.089 1.021,1.851 1.932,0.936C2.843,0.022 4.079,-0.495 5.37,-0.5L13.11,-0.5C13.75,-0.5 14.384,-0.372 14.974,-0.125C15.565,0.122 16.1,0.484 16.55,0.94C17.006,1.385 17.368,1.917 17.615,2.504C17.863,3.092 17.99,3.723 17.99,4.36ZM39.49,4.38L39.49,12.12C39.48,13.407 38.965,14.64 38.056,15.552C37.148,16.464 35.918,16.984 34.63,17L26.87,17C25.576,16.992 24.336,16.483 23.41,15.58C22.957,15.125 22.599,14.585 22.355,13.991C22.112,13.398 21.988,12.762 21.99,12.12L21.99,4.38C21.987,3.739 22.113,3.105 22.361,2.514C22.608,1.923 22.972,1.388 23.43,0.94C23.88,0.484 24.415,0.122 25.006,-0.125C25.596,-0.372 26.23,-0.5 26.87,-0.5L34.61,-0.5C35.901,-0.49 37.136,0.028 38.049,0.941C38.962,1.854 39.48,3.089 39.49,4.38ZM39.49,25.88L39.49,33.62C39.48,34.907 38.965,36.14 38.056,37.052C37.148,37.964 35.918,38.484 34.63,38.5L26.87,38.5C25.568,38.513 24.313,38.018 23.37,37.12C22.916,36.666 22.556,36.127 22.312,35.533C22.069,34.938 21.945,34.302 21.95,33.66L21.95,25.92C21.947,25.279 22.074,24.645 22.321,24.054C22.568,23.463 22.932,22.928 23.39,22.48C23.84,22.024 24.375,21.663 24.966,21.415C25.556,21.168 26.19,21.041 26.83,21.04L34.57,21.04C35.861,21.05 37.096,21.568 38.009,22.481C38.922,23.394 39.44,24.629 39.45,25.92L39.49,25.88ZM17.99,25.9L17.99,33.64C17.974,34.931 17.452,36.164 16.535,37.073C15.618,37.982 14.381,38.495 13.09,38.5L5.37,38.5C4.731,38.502 4.098,38.379 3.507,38.135C2.916,37.892 2.379,37.534 1.928,37.082C1.476,36.63 1.118,36.094 0.875,35.503C0.631,34.912 0.507,34.279 0.51,33.64L0.51,25.9C0.515,24.609 1.028,23.371 1.937,22.455C2.846,21.538 4.079,21.016 5.37,21L13.11,21C14.407,21.011 15.648,21.528 16.57,22.44C17.482,23.36 17.993,24.604 17.99,25.9Z" fill="#000000"/>
</svg>
