<svg width="40" height="32" viewBox="0 0 40 32" fill="none" xmlns="http://www.w3.org/2000/svg" xmlns:xlink="http://www.w3.org/1999/xlink">
<path d="M36,0L4,0C1.794,0 0,1.794 0,4L0,28C0,30.206 1.794,32 4,32L36,32C38.206,32 40,30.206 40,28L40,4C40,1.794 38.206,0 36,0ZM9,6C9.796,6 10.559,6.316 11.121,6.879C11.684,7.441 12,8.204 12,9C12,9.796 11.684,10.559 11.121,11.121C10.559,11.684 9.796,12 9,12C8.204,12 7.441,11.684 6.879,11.121C6.316,10.559 6,9.796 6,9C6,8.204 6.316,7.441 6.879,6.879C7.441,6.316 8.204,6 9,6ZM20,26L6,26L14,16L17,20L23,12L34,26L20,26Z" fill="#000000"/>
</svg>
