<svg width="40" height="34" viewBox="0 0 40 34" fill="none" xmlns="http://www.w3.org/2000/svg" xmlns:xlink="http://www.w3.org/1999/xlink">
<path d="M20,8L4,8C2.939,8 1.922,8.421 1.172,9.172C0.421,9.922 0,10.939 0,12L0,20C0,21.061 0.421,22.078 1.172,22.828C1.922,23.579 2.939,24 4,24L6,24L6,32C6,32.53 6.211,33.039 6.586,33.414C6.961,33.789 7.47,34 8,34L12,34C12.53,34 13.039,33.789 13.414,33.414C13.789,33.039 14,32.53 14,32L14,24L20,24L30,32L30,0L20,8ZM39,16C39,19.42 37.08,22.52 34,24L34,8C37.06,9.5 39,12.6 39,16Z" fill="#333333"/>
</svg>
