<svg width="32" height="40" viewBox="0 0 32 40" fill="none" xmlns="http://www.w3.org/2000/svg" xmlns:xlink="http://www.w3.org/1999/xlink">
<path d="M2.071,39.772C2.394,39.941 2.757,40.018 3.121,39.995C3.485,39.973 3.836,39.851 4.137,39.644L30.137,21.644C30.402,21.46 30.619,21.215 30.769,20.928C30.919,20.642 30.998,20.324 30.998,20C30.998,19.677 30.919,19.359 30.769,19.072C30.619,18.786 30.402,18.54 30.137,18.356L4.137,0.356C3.836,0.149 3.485,0.027 3.121,0.005C2.757,-0.018 2.394,0.06 2.07,0.229C1.747,0.399 1.476,0.653 1.288,0.965C1.099,1.278 0.999,1.635 0.999,2L0.999,38C0.998,38.365 1.098,38.724 1.287,39.036C1.476,39.348 1.747,39.603 2.071,39.772Z" fill="#000000"/>
</svg>
