<svg width="32" height="40" viewBox="0 0 32 40" fill="none" xmlns="http://www.w3.org/2000/svg" xmlns:xlink="http://www.w3.org/1999/xlink">
<path d="M2.071,39.773C2.394,39.941 2.757,40.018 3.121,39.995C3.485,39.973 3.836,39.852 4.137,39.645L30.137,21.645C30.402,21.461 30.619,21.215 30.769,20.929C30.919,20.642 30.998,20.324 30.998,20.001C30.998,19.678 30.919,19.359 30.769,19.073C30.619,18.787 30.402,18.541 30.137,18.357L4.137,0.357C3.836,0.149 3.485,0.028 3.121,0.005C2.757,-0.017 2.394,0.061 2.07,0.23C1.747,0.399 1.476,0.654 1.288,0.966C1.099,1.278 0.999,1.636 0.999,2.001L0.999,38.001C0.998,38.366 1.098,38.724 1.287,39.036C1.476,39.349 1.747,39.603 2.071,39.773Z" fill="#000000"/>
</svg>
