<svg width="40" height="40" viewBox="0 0 40 40" fill="none" xmlns="http://www.w3.org/2000/svg" xmlns:xlink="http://www.w3.org/1999/xlink">
<path d="M27.45,39.998L27.45,24.508L32.65,24.508L33.428,18.472L27.448,18.472L27.448,14.618C27.448,12.87 27.934,11.678 30.442,11.678L33.638,11.678L33.638,6.278C32.09,6.113 30.535,6.033 28.978,6.038C24.37,6.038 21.216,8.852 21.216,14.018L21.216,18.472L16,18.472L16,24.508L21.214,24.508L21.214,39.998L2.208,39.998C0.988,39.998 0,39.01 0,37.79L0,2.206C0,0.986 0.988,-0.002 2.208,-0.002L37.792,-0.002C39.012,-0.002 40,0.986 40,2.206L40,37.79C40,39.01 39.012,39.998 37.792,39.998L27.45,39.998Z" clip-rule="evenodd" fill-rule="evenodd" fill="#FFFFFF"/>
</svg>
