<svg width="40" height="32" viewBox="0 0 40 32" fill="none" xmlns="http://www.w3.org/2000/svg" xmlns:xlink="http://www.w3.org/1999/xlink">
<path d="M20,0.001C21.71,0.001 23.464,0.045 25.164,0.117L27.172,0.213L29.094,0.327L30.894,0.449L32.538,0.577C34.322,0.713 36.002,1.474 37.28,2.726C38.558,3.979 39.354,5.642 39.526,7.423L39.606,8.273L39.756,10.093C39.896,11.979 40,14.035 40,16.001C40,17.967 39.896,20.023 39.756,21.909L39.606,23.729L39.526,24.579C39.354,26.361 38.558,28.024 37.279,29.276C36,30.529 34.321,31.29 32.536,31.425L30.896,31.551L29.096,31.675L27.172,31.789L25.164,31.885C23.444,31.96 21.722,31.998 20,32.001C18.278,31.998 16.556,31.96 14.836,31.885L12.828,31.789L10.906,31.675L9.106,31.551L7.462,31.425C5.678,31.289 3.998,30.528 2.72,29.276C1.442,28.023 0.646,26.36 0.474,24.579L0.394,23.729L0.244,21.909C0.092,19.943 0.01,17.973 0,16.001C0,14.035 0.104,11.979 0.244,10.093L0.394,8.273L0.474,7.423C0.646,5.642 1.441,3.979 2.719,2.727C3.997,1.474 5.676,0.713 7.46,0.577L9.102,0.449L10.902,0.327L12.826,0.213L14.834,0.117C16.555,0.042 18.277,0.004 20,0.001ZM16,11.151L16,20.851C16,21.775 17,22.351 17.8,21.891L26.2,17.041C26.383,16.936 26.535,16.784 26.64,16.602C26.746,16.419 26.801,16.212 26.801,16.001C26.801,15.79 26.746,15.583 26.64,15.4C26.535,15.218 26.383,15.066 26.2,14.961L17.8,10.113C17.618,10.008 17.411,9.952 17.2,9.952C16.989,9.952 16.782,10.008 16.6,10.113C16.417,10.219 16.266,10.37 16.16,10.553C16.055,10.735 16,10.942 16,11.153L16,11.151Z" clip-rule="evenodd" fill-rule="evenodd" fill="#FFFFFF"/>
</svg>
