<svg width="56" height="58" viewBox="0 0 56 58" fill="none" xmlns="http://www.w3.org/2000/svg" xmlns:xlink="http://www.w3.org/1999/xlink">
<path d="M28,1C22.462,1 17.049,2.642 12.444,5.719C7.839,8.796 4.251,13.169 2.131,18.285C0.012,23.401 -0.542,29.031 0.538,34.463C1.618,39.894 4.285,44.883 8.201,48.799C12.117,52.715 17.106,55.382 22.537,56.462C27.969,57.542 33.599,56.988 38.715,54.869C43.831,52.749 48.204,49.161 51.281,44.556C54.358,39.951 56,34.538 56,29C56,21.574 53.05,14.452 47.799,9.201C42.548,3.95 35.426,1 28,1ZM24,40.18L14,30.18L17.18,27L24,33.82L38.82,19L42.012,22.172L24,40.18Z" fill="#000000"/>
</svg>
