<svg width="40" height="42" viewBox="0 0 40 42" fill="none" xmlns="http://www.w3.org/2000/svg" xmlns:xlink="http://www.w3.org/1999/xlink">
<path d="M38,1L8,1C6.939,1 5.922,1.421 5.172,2.172C4.421,2.922 4,3.939 4,5L4,11L0,11L0,15L4,15L4,19L0,19L0,23L4,23L4,27L0,27L0,31L4,31L4,37C4,38.061 4.421,39.078 5.172,39.828C5.922,40.579 6.939,41 8,41L38,41C38.53,41 39.039,40.789 39.414,40.414C39.789,40.039 40,39.53 40,39L40,3C40,2.47 39.789,1.961 39.414,1.586C39.039,1.211 38.53,1 38,1ZM22,6.998C25.296,6.998 28,9.7 28,12.998C27.994,14.588 27.36,16.111 26.236,17.235C25.112,18.359 23.59,18.994 22,19C18.706,19 16,16.294 16,12.998C16,9.7 18.706,6.998 22,6.998ZM34,33L10,33L10,31.5C10,27.062 15.41,22.5 22,22.5C28.59,22.5 34,27.062 34,31.5L34,33Z" fill="#000000"/>
</svg>
