<svg width="120" height="120" viewBox="0 0 120 120" fill="none" xmlns="http://www.w3.org/2000/svg" xmlns:xlink="http://www.w3.org/1999/xlink">
<path d="M59.344,0C92.482,0 119.344,26.862 119.344,60C119.365,73.847 114.576,87.272 105.796,97.98L105.916,98.112L105.124,98.784C99.497,105.439 92.485,110.785 84.578,114.449C76.671,118.114 68.059,120.008 59.344,120C41.644,120 25.744,112.338 14.764,100.158L13.564,98.778L12.772,98.118L12.892,97.974C4.113,87.268 -0.675,73.845 -0.656,60C-0.656,26.862 26.206,0 59.344,0ZM59.344,90C48.184,90 38.098,93.552 30.586,98.436C38.881,104.658 48.974,108.014 59.344,108C69.713,108.014 79.806,104.658 88.102,98.436C79.518,92.937 69.539,90.009 59.344,90ZM59.344,12C50.311,12 41.461,14.548 33.812,19.353C26.163,24.157 20.025,31.022 16.103,39.159C12.181,47.296 10.635,56.375 11.642,65.352C12.649,74.328 16.168,82.838 21.796,89.904C31.522,82.926 44.794,78 59.344,78C73.894,78 87.166,82.926 96.892,89.904C102.519,82.838 106.039,74.328 107.046,65.352C108.053,56.375 106.507,47.296 102.585,39.159C98.663,31.022 92.525,24.157 84.876,19.353C77.226,14.548 68.377,12 59.344,12ZM59.344,24C65.709,24 71.814,26.529 76.314,31.029C80.815,35.53 83.344,41.635 83.344,48C83.344,54.365 80.815,60.47 76.314,64.971C71.814,69.471 65.709,72 59.344,72C52.979,72 46.874,69.471 42.373,64.971C37.872,60.47 35.344,54.365 35.344,48C35.344,41.635 37.872,35.53 42.373,31.029C46.874,26.529 52.979,24 59.344,24ZM59.344,36C56.161,36 53.109,37.264 50.859,39.515C48.608,41.765 47.344,44.817 47.344,48C47.344,51.183 48.608,54.235 50.859,56.485C53.109,58.736 56.161,60 59.344,60C62.526,60 65.579,58.736 67.829,56.485C70.08,54.235 71.344,51.183 71.344,48C71.344,44.817 70.08,41.765 67.829,39.515C65.579,37.264 62.526,36 59.344,36Z" clip-rule="evenodd" fill-rule="evenodd" fill="#6C63FF"/>
</svg>
