<svg width="68" height="68" viewBox="0 0 68 68" fill="none" xmlns="http://www.w3.org/2000/svg" xmlns:xlink="http://www.w3.org/1999/xlink">
<path d="M34,60.667C26.927,60.667 20.145,57.857 15.144,52.857C10.143,47.856 7.333,41.073 7.333,34C7.333,26.928 10.143,20.145 15.144,15.144C20.145,10.143 26.927,7.334 34,7.334C41.072,7.334 47.855,10.143 52.856,15.144C57.857,20.145 60.667,26.928 60.667,34C60.667,41.073 57.857,47.856 52.856,52.857C47.855,57.857 41.072,60.667 34,60.667ZM34,0.667C29.623,0.667 25.288,1.529 21.244,3.204C17.2,4.879 13.525,7.335 10.43,10.43C4.178,16.681 0.667,25.16 0.667,34C0.667,42.841 4.178,51.319 10.43,57.571C13.525,60.666 17.2,63.121 21.244,64.796C25.288,66.471 29.623,67.334 34,67.334C42.84,67.334 51.319,63.822 57.57,57.571C63.821,51.319 67.333,42.841 67.333,34C67.333,29.623 66.471,25.288 64.796,21.244C63.121,17.2 60.665,13.525 57.57,10.43C54.475,7.335 50.8,4.879 46.756,3.204C42.712,1.529 38.377,0.667 34,0.667Z" fill="#000000"/>
</svg>
