<svg width="40" height="40" viewBox="0 0 40 40" fill="none" xmlns="http://www.w3.org/2000/svg" xmlns:xlink="http://www.w3.org/1999/xlink">
<path d="M27.45,39.999L27.45,24.509L32.65,24.509L33.428,18.473L27.448,18.473L27.448,14.619C27.448,12.871 27.934,11.679 30.442,11.679L33.638,11.679L33.638,6.279C32.09,6.114 30.535,6.034 28.978,6.039C24.37,6.039 21.216,8.853 21.216,14.019L21.216,18.473L16,18.473L16,24.509L21.214,24.509L21.214,39.999L2.208,39.999C0.988,39.999 0,39.011 0,37.791L0,2.207C0,0.987 0.988,-0.001 2.208,-0.001L37.792,-0.001C39.012,-0.001 40,0.987 40,2.207L40,37.791C40,39.011 39.012,39.999 37.792,39.999L27.45,39.999Z" clip-rule="evenodd" fill-rule="evenodd" fill="#FFFFFF"/>
</svg>
