<svg width="56" height="58" viewBox="0 0 56 58" fill="none" xmlns="http://www.w3.org/2000/svg" xmlns:xlink="http://www.w3.org/1999/xlink">
<path d="M17.92,43L28,32.92L38.08,43L42,39.08L31.92,29L42,18.92L38.08,15L28,25.08L17.92,15L14,18.92L24.08,29L14,39.08L17.92,43ZM28,57C24.127,57 20.487,56.265 17.08,54.794C13.673,53.323 10.71,51.328 8.19,48.81C5.67,46.292 3.675,43.329 2.206,39.92C0.737,36.511 0.002,32.871 0,29C-0.002,25.129 0.734,21.489 2.206,18.08C3.679,14.671 5.674,11.708 8.19,9.19C10.706,6.672 13.67,4.677 17.08,3.206C20.49,1.735 24.13,1 28,1C31.87,1 35.51,1.735 38.92,3.206C42.33,4.677 45.294,6.672 47.81,9.19C50.326,11.708 52.322,14.671 53.796,18.08C55.271,21.489 56.006,25.129 56,29C55.994,32.871 55.259,36.511 53.794,39.92C52.328,43.329 50.334,46.292 47.81,48.81C45.286,51.328 42.323,53.324 38.92,54.796C35.517,56.269 31.877,57.004 28,57Z" fill="#000000"/>
</svg>
