<svg width="30" height="40" viewBox="0 0 30 40" fill="none" xmlns="http://www.w3.org/2000/svg" xmlns:xlink="http://www.w3.org/1999/xlink">
<path d="M1.071,38.772C1.394,38.941 1.757,39.018 2.121,38.995C2.485,38.973 2.836,38.851 3.137,38.644L29.137,20.644C29.402,20.46 29.619,20.215 29.769,19.928C29.919,19.642 29.998,19.324 29.998,19C29.998,18.677 29.919,18.359 29.769,18.072C29.619,17.786 29.402,17.54 29.137,17.356L3.137,-0.644C2.836,-0.851 2.485,-0.973 2.121,-0.995C1.757,-1.018 1.394,-0.94 1.07,-0.771C0.747,-0.601 0.476,-0.347 0.288,-0.035C0.099,0.278 -0.001,0.635 -0.001,1L-0.001,37C-0.002,37.365 0.098,37.724 0.287,38.036C0.476,38.348 0.747,38.603 1.071,38.772Z" fill="#000000"/>
</svg>
