<svg width="36" height="42" viewBox="0 0 36 42" fill="none" xmlns="http://www.w3.org/2000/svg" xmlns:xlink="http://www.w3.org/1999/xlink">
<path d="M31,5L22.64,5C21.8,2.68 19.6,1 17,1C14.4,1 12.2,2.68 11.36,5L3,5C0.8,5 -1,6.8 -1,9L-1,37C-1,39.2 0.8,41 3,41L31,41C33.2,41 35,39.2 35,37L35,9C35,6.8 33.2,5 31,5ZM17,5C18.1,5 19,5.9 19,7C19,8.1 18.1,9 17,9C15.9,9 15,8.1 15,7C15,5.9 15.9,5 17,5ZM19,33L9,33C7.9,33 7,32.1 7,31C7,29.9 7.9,29 9,29L19,29C20.1,29 21,29.9 21,31C21,32.1 20.1,33 19,33ZM25,25L9,25C7.9,25 7,24.1 7,23C7,21.9 7.9,21 9,21L25,21C26.1,21 27,21.9 27,23C27,24.1 26.1,25 25,25ZM25,17L9,17C7.9,17 7,16.1 7,15C7,13.9 7.9,13 9,13L25,13C26.1,13 27,13.9 27,15C27,16.1 26.1,17 25,17Z" fill="#FFFFFF"/>
</svg>
