<svg width="56" height="56" viewBox="0 0 56 56" fill="none" xmlns="http://www.w3.org/2000/svg" xmlns:xlink="http://www.w3.org/1999/xlink">
<path d="M54.25,1.792C53.864,1.405 53.407,1.099 52.903,0.89C52.398,0.681 51.858,0.573 51.312,0.573C50.767,0.573 50.226,0.681 49.722,0.89C49.218,1.099 48.76,1.405 48.375,1.792L28,22.125L7.625,1.75C7.239,1.364 6.781,1.058 6.277,0.849C5.773,0.641 5.233,0.533 4.687,0.533C4.142,0.533 3.602,0.641 3.098,0.849C2.594,1.058 2.136,1.364 1.75,1.75C1.364,2.136 1.058,2.594 0.849,3.098C0.641,3.602 0.533,4.142 0.533,4.687C0.533,5.233 0.641,5.773 0.849,6.277C1.058,6.781 1.364,7.239 1.75,7.625L22.125,28L1.75,48.375C1.364,48.761 1.058,49.219 0.849,49.723C0.641,50.227 0.533,50.767 0.533,51.312C0.533,51.858 0.641,52.398 0.849,52.902C1.058,53.406 1.364,53.864 1.75,54.25C2.136,54.636 2.594,54.942 3.098,55.15C3.602,55.359 4.142,55.467 4.687,55.467C5.233,55.467 5.773,55.359 6.277,55.15C6.781,54.942 7.239,54.636 7.625,54.25L28,33.875L48.375,54.25C48.761,54.636 49.219,54.942 49.723,55.15C50.227,55.359 50.767,55.467 51.312,55.467C51.858,55.467 52.398,55.359 52.902,55.15C53.406,54.942 53.864,54.636 54.25,54.25C54.636,53.864 54.942,53.406 55.15,52.902C55.359,52.398 55.467,51.858 55.467,51.312C55.467,50.767 55.359,50.227 55.15,49.723C54.942,49.219 54.636,48.761 54.25,48.375L33.875,28L54.25,7.625C55.833,6.042 55.833,3.375 54.25,1.792Z" fill="#6C63FF"/>
</svg>
