<svg width="48" height="40" viewBox="0 0 48 40" fill="none" xmlns="http://www.w3.org/2000/svg" xmlns:xlink="http://www.w3.org/1999/xlink">
<path d="M10.06,0.26L-1,11.5L10.06,11.5L10.06,0.26ZM10.856,0.26L10.856,11.5L26.072,11.5L26.072,18.8L37.012,9.9C36.984,7.46 37.074,5.4 36.962,2.98C36.666,0.8 34.388,0.04 32.49,0.26L10.856,0.26ZM45.2,4.64C43.596,5.23 42.484,6.63 41.106,7.62C36.094,11.72 31.142,15.86 26.17,20C32.22,25.18 38.25,30.36 44.3,35.52C46.736,36.862 47.156,33.892 46.956,32.24L46.956,6.24C46.955,6.015 46.908,5.792 46.818,5.585C46.728,5.379 46.598,5.193 46.433,5.038C46.269,4.884 46.076,4.765 45.864,4.688C45.652,4.61 45.427,4.577 45.202,4.59L45.2,4.64ZM-0.924,12.3L-0.924,27.7L10.136,27.7L10.136,12.3L-0.924,12.3ZM26.23,28.5L11.016,28.5L11.016,39.74C18.744,39.728 26.49,39.762 34.176,39.722C36.216,39.582 37.412,37.482 37.112,35.582L37.112,30.562L26.172,21.202L26.172,28.502L26.23,28.5ZM-0.924,28.5C-0.884,31.38 -1.006,34.26 -0.858,37.12C-0.534,39.016 1.458,39.98 3.236,39.74L10.164,39.74L10.164,28.5L-0.924,28.5Z" fill="#000000"/>
</svg>
