<svg width="40" height="40" viewBox="0 0 40 40" fill="none" xmlns="http://www.w3.org/2000/svg" xmlns:xlink="http://www.w3.org/1999/xlink">
<path d="M39.98,9.094C39.963,8.236 39.895,7.38 39.774,6.53C39.63,5.774 39.386,5.041 39.048,4.35C38.308,2.889 37.121,1.701 35.66,0.96C34.973,0.623 34.245,0.38 33.494,0.236C32.638,0.113 31.775,0.043 30.91,0.026C30.544,0.012 30.07,0.006 29.85,0.006L10.154,0C9.934,0 9.46,0.006 9.094,0.02C8.236,0.037 7.38,0.105 6.53,0.226C5.774,0.37 5.041,0.614 4.35,0.952C2.889,1.692 1.701,2.879 0.96,4.34C0.624,5.027 0.38,5.755 0.236,6.506C0.112,7.362 0.042,8.225 0.024,9.09C0.012,9.456 0.004,9.93 0.004,10.15L0,29.846C0,30.066 0.006,30.54 0.02,30.906C0.037,31.764 0.105,32.62 0.226,33.47C0.37,34.226 0.614,34.959 0.952,35.65C1.692,37.111 2.879,38.299 4.34,39.04C5.027,39.376 5.755,39.62 6.506,39.764C7.362,39.887 8.225,39.957 9.09,39.974C9.456,39.988 9.93,39.994 10.15,39.994L29.846,39.998C30.066,39.998 30.54,39.992 30.906,39.978C31.764,39.961 32.62,39.893 33.47,39.772C34.226,39.628 34.959,39.384 35.65,39.046C37.112,38.306 38.3,37.119 39.042,35.658C39.379,34.971 39.622,34.243 39.766,33.492C39.89,32.636 39.96,31.773 39.978,30.908C39.99,30.542 39.998,30.068 39.998,29.848L40,10.154C40,9.934 39.994,9.46 39.98,9.094ZM20.434,33.914L20.428,33.914C18.047,33.914 15.705,33.317 13.614,32.178L6.054,34.16L8.078,26.774C6.511,24.055 5.885,20.894 6.297,17.783C6.708,14.671 8.135,11.783 10.356,9.565C12.577,7.347 15.467,5.923 18.579,5.515C21.691,5.107 24.85,5.737 27.568,7.307C30.285,8.878 32.409,11.301 33.609,14.201C34.81,17.101 35.02,20.316 34.207,23.347C33.394,26.379 31.604,29.057 29.114,30.968C26.623,32.878 23.573,33.914 20.434,33.914Z" fill="#FFFFFF"/>
<path d="M20.44,7.802C18.322,7.801 16.243,8.368 14.418,9.443C12.594,10.519 11.09,12.063 10.065,13.916C9.039,15.769 8.529,17.863 8.587,19.98C8.645,22.097 9.269,24.16 10.394,25.954L10.676,26.402L9.478,30.774L13.964,29.598L14.396,29.854C16.222,30.936 18.306,31.506 20.428,31.506L20.434,31.506C23.578,31.507 26.593,30.258 28.816,28.036C31.039,25.813 32.288,22.799 32.289,19.655C32.29,16.511 31.041,13.496 28.819,11.273C26.596,9.05 23.582,7.801 20.438,7.8L20.44,7.802ZM27.408,24.742C27.146,25.175 26.797,25.549 26.383,25.84C25.969,26.132 25.5,26.335 25.004,26.436C24.255,26.564 23.487,26.516 22.76,26.296C22.071,26.081 21.393,25.83 20.73,25.544C18.269,24.309 16.172,22.456 14.644,20.166C13.81,19.106 13.304,17.826 13.188,16.482C13.178,15.927 13.284,15.377 13.499,14.866C13.714,14.354 14.033,13.893 14.436,13.512C14.555,13.376 14.701,13.266 14.864,13.19C15.028,13.113 15.205,13.071 15.386,13.066C15.622,13.066 15.86,13.066 16.068,13.078C16.288,13.088 16.58,12.994 16.868,13.69C17.168,14.402 17.88,16.156 17.968,16.334C18.024,16.427 18.057,16.533 18.062,16.642C18.067,16.751 18.045,16.86 17.998,16.958C17.908,17.172 17.788,17.372 17.642,17.552C17.462,17.76 17.268,18.016 17.108,18.176C16.928,18.354 16.744,18.546 16.95,18.902C17.485,19.818 18.153,20.65 18.932,21.37C19.777,22.121 20.747,22.72 21.798,23.138C22.154,23.318 22.362,23.286 22.57,23.048C22.778,22.81 23.46,22.008 23.698,21.652C23.936,21.296 24.172,21.356 24.498,21.474C24.824,21.592 26.578,22.454 26.934,22.634C27.29,22.814 27.528,22.9 27.616,23.048C27.714,23.621 27.641,24.21 27.408,24.742Z" fill="#FFFFFF"/>
</svg>
