<svg width="96" height="120" viewBox="0 0 96 120" fill="none" xmlns="http://www.w3.org/2000/svg" xmlns:xlink="http://www.w3.org/1999/xlink">
<path d="M47.344,12C44.161,12 41.109,13.264 38.859,15.515C36.608,17.765 35.344,20.817 35.344,24L59.344,24C59.344,20.817 58.08,17.765 55.829,15.515C53.579,13.264 50.526,12 47.344,12ZM31.468,6C35.698,2.268 41.26,0 47.344,0C53.428,0 58.984,2.268 63.22,6L83.344,6C86.526,6 89.579,7.264 91.829,9.515C94.08,11.765 95.344,14.817 95.344,18L95.344,108C95.344,111.183 94.08,114.235 91.829,116.485C89.579,118.736 86.526,120 83.344,120L11.344,120C8.161,120 5.109,118.736 2.858,116.485C0.608,114.235 -0.656,111.183 -0.656,108L-0.656,18C-0.656,14.817 0.608,11.765 2.858,9.515C5.109,7.264 8.161,6 11.344,6L31.468,6ZM24.1,18L11.344,18L11.344,108L83.344,108L83.344,18L70.588,18C71.084,19.924 71.336,21.924 71.344,24L71.344,30C71.344,31.591 70.712,33.117 69.586,34.243C68.461,35.368 66.935,36 65.344,36L29.344,36C27.753,36 26.226,35.368 25.101,34.243C23.976,33.117 23.344,31.591 23.344,30L23.344,24C23.352,21.924 23.604,19.924 24.1,18ZM23.344,54C23.344,52.409 23.976,50.883 25.101,49.757C26.226,48.632 27.753,48 29.344,48L65.344,48C66.935,48 68.461,48.632 69.586,49.757C70.712,50.883 71.344,52.409 71.344,54C71.344,55.591 70.712,57.117 69.586,58.243C68.461,59.368 66.935,60 65.344,60L29.344,60C27.753,60 26.226,59.368 25.101,58.243C23.976,57.117 23.344,55.591 23.344,54ZM23.344,78C23.344,76.409 23.976,74.883 25.101,73.757C26.226,72.632 27.753,72 29.344,72L47.344,72C48.935,72 50.461,72.632 51.586,73.757C52.712,74.883 53.344,76.409 53.344,78C53.344,79.591 52.712,81.117 51.586,82.243C50.461,83.368 48.935,84 47.344,84L29.344,84C27.753,84 26.226,83.368 25.101,82.243C23.976,81.117 23.344,79.591 23.344,78Z" clip-rule="evenodd" fill-rule="evenodd" fill="#6C63FF"/>
</svg>
