<svg width="44" height="36" viewBox="0 0 44 36" fill="none" xmlns="http://www.w3.org/2000/svg" xmlns:xlink="http://www.w3.org/1999/xlink">
<path d="M43,5C41.454,5.7 39.788,6.16 38.061,6.38C39.828,5.32 41.193,3.64 41.836,1.62C40.169,2.62 38.322,3.32 36.375,3.72C34.789,2 32.56,1 30.031,1C25.313,1 21.458,4.84 21.458,9.58C21.458,10.26 21.538,10.92 21.679,11.54C14.532,11.18 8.167,7.76 3.931,2.58C3.188,3.84 2.767,5.32 2.767,6.88C2.767,9.86 4.272,12.5 6.601,14C5.176,14 3.851,13.6 2.686,13L2.686,13.06C2.686,17.22 5.658,20.7 9.593,21.48C8.33,21.826 7.003,21.874 5.718,21.62C6.263,23.325 7.331,24.817 8.772,25.886C10.212,26.955 11.953,27.547 13.749,27.58C10.704,29.981 6.931,31.279 3.048,31.26C2.365,31.26 1.683,31.22 1,31.14C4.815,33.58 9.352,35 14.21,35C30.031,35 38.724,21.92 38.724,10.58C38.724,10.2 38.724,9.84 38.704,9.46C40.39,8.26 41.836,6.74 43,5Z" fill="#FFFFFF"/>
</svg>
