<svg width="132" height="100" viewBox="0 0 132 100" fill="none" xmlns="http://www.w3.org/2000/svg" xmlns:xlink="http://www.w3.org/1999/xlink">
<path d="M123.844,63.75L121.594,63.75L121.594,16.5C121.594,12.323 119.934,8.317 116.981,5.363C114.027,2.409 110.021,0.75 105.844,0.75L24.844,0.75C20.667,0.75 16.661,2.409 13.707,5.363C10.753,8.317 9.094,12.323 9.094,16.5L9.094,63.75L6.844,63.75C5.054,63.75 3.337,64.461 2.071,65.727C0.805,66.993 0.094,68.71 0.094,70.5L0.094,84C0.094,88.177 1.753,92.183 4.707,95.137C7.661,98.091 11.667,99.75 15.844,99.75L114.844,99.75C119.021,99.75 123.027,98.091 125.981,95.137C128.934,92.183 130.594,88.177 130.594,84L130.594,70.5C130.594,68.71 129.883,66.993 128.617,65.727C127.351,64.461 125.634,63.75 123.844,63.75ZM22.594,16.5C22.594,15.903 22.831,15.331 23.253,14.909C23.675,14.487 24.247,14.25 24.844,14.25L105.844,14.25C106.441,14.25 107.013,14.487 107.435,14.909C107.857,15.331 108.094,15.903 108.094,16.5L108.094,63.75L22.594,63.75L22.594,16.5ZM117.094,84C117.094,84.597 116.857,85.169 116.435,85.591C116.013,86.013 115.441,86.25 114.844,86.25L15.844,86.25C15.247,86.25 14.675,86.013 14.253,85.591C13.831,85.169 13.594,84.597 13.594,84L13.594,77.25L117.094,77.25L117.094,84ZM81.094,30C81.094,31.79 80.383,33.507 79.117,34.773C77.851,36.039 76.134,36.75 74.344,36.75L56.344,36.75C54.554,36.75 52.837,36.039 51.571,34.773C50.305,33.507 49.594,31.79 49.594,30C49.594,28.21 50.305,26.493 51.571,25.227C52.837,23.961 54.554,23.25 56.344,23.25L74.344,23.25C76.134,23.25 77.851,23.961 79.117,25.227C80.383,26.493 81.094,28.21 81.094,30Z" fill="#6C63FF"/>
</svg>
